{
  "accessors": [
    {
      "bufferView": 0,
      "componentType": 5126,
      "count": 559,
      "max": [
        0.18340404331684113,
        0.15014472603797913,
        0.8522360324859619
      ],
      "min": [
        -0.19020462036132813,
        -0.16881972551345825,
        -0.007876167073845863
      ],
      "name": "Circle_020/POSITION",
      "type": "VEC3"
    },
    {
      "bufferView": 0,
      "byteOffset": 12,
      "componentType": 5126,
      "count": 559,
      "name": "Circle_020/NORMAL",
      "type": "VEC3"
    },
    {
      "bufferView": 0,
      "byteOffset": 24,
      "componentType": 5126,
      "count": 559,
      "name": "Circle_020/TEXCOORD_0",
      "type": "VEC2"
    },
    {
      "bufferView": 1,
      "componentType": 5123,
      "count": 885,
      "name": "Circle_020/INDICES",
      "type": "SCALAR"
    }
  ],
  "asset": {
    "copyright": "Copyright (c) 2018-2020 Chukong Technologies Inc.",
    "generator": "FBX-glTF-conv",
    "version": "2.0"
  },
  "bufferViews": [
    {
      "buffer": 0,
      "byteLength": 17888,
      "byteStride": 32,
      "name": "Circle_020",
      "target": 34962
    },
    {
      "buffer": 0,
      "byteLength": 1770,
      "byteOffset": 17888,
      "target": 34963
    }
  ],
  "buffers": [
    {
      "byteLength": 19658,
      "uri": "out.bin"
    }
  ],
  "extras": {
    "FBX-glTF-conv": {
      "animationFrameRate": 30.0,
      "fbxFileHeaderInfo": {
        "creationTimeStamp": {
          "day": 25,
          "hour": 16,
          "millisecond": 356,
          "minute": 49,
          "month": 7,
          "second": 46,
          "year": 2025
        },
        "creator": "FBX SDK/FBX Plugins version 2020.3.1",
        "sceneInfo": {
          "author": "",
          "comment": "",
          "keywords": "",
          "original": {
            "applicationName": "3ds Max",
            "applicationVendor": "Autodesk",
            "applicationVersion": "2023",
            "fileName": "D:\\LK\\work\\01A资源\\SSD_收集解锁地块\\v3\\yumi.fbx"
          },
          "revision": "",
          "subject": "",
          "title": "",
          "url": "D:\\Cocos\\PlayAble\\SSD_UnlockPlot\\assets\\Res\\Fbx\\Build\\nongtian\\yumi.fbx"
        }
      }
    }
  },
  "materials": [
    {
      "extras": {
        "FBX-glTF-conv": {
          "raw": {
            "properties": {
              "3dsMax": {
                "value": {
                  "ClassIDa": {
                    "value": 1030429932
                  },
                  "ClassIDb": {
                    "value": -559038463
                  },
                  "ORIGINAL_MTL": {
                    "value": "PHYSICAL_MTL"
                  },
                  "Parameters": {
                    "value": {
                      "aniso_angle_map_on": {
                        "value": true
                      },
                      "aniso_channel": {
                        "value": 0
                      },
                      "aniso_mode": {
                        "value": 0
                      },
                      "anisoangle": {
                        "value": 0.25
                      },
                      "anisotropy": {
                        "value": 0.0
                      },
                      "anisotropy_map_on": {
                        "value": true
                      },
                      "base_color": {
                        "value": [
                          0.5,
                          0.5,
                          0.5,
                          1.0
                        ]
                      },
                      "base_color_map_on": {
                        "value": true
                      },
                      "base_weight": {
                        "value": 1.0
                      },
                      "base_weight_map_on": {
                        "value": true
                      },
                      "brdf_curve": {
                        "value": 5.0
                      },
                      "brdf_high": {
                        "value": 1.0
                      },
                      "brdf_low": {
                        "value": 0.05000000074505806
                      },
                      "brdf_mode": {
                        "value": true
                      },
                      "coat_affect_color": {
                        "value": 0.5
                      },
                      "coat_affect_roughness": {
                        "value": 0.5
                      },
                      "coat_aniso_angle_map_on": {
                        "value": true
                      },
                      "coat_aniso_map_on": {
                        "value": true
                      },
                      "coat_anisoangle": {
                        "value": 0.25
                      },
                      "coat_anisotropy": {
                        "value": 0.0
                      },
                      "coat_color": {
                        "value": [
                          1.0,
                          1.0,
                          1.0,
                          1.0
                        ]
                      },
                      "coat_color_map_on": {
                        "value": true
                      },
                      "coat_ior": {
                        "value": 1.5199999809265137
                      },
                      "coat_map_on": {
                        "value": true
                      },
                      "coat_rough_map_on": {
                        "value": true
                      },
                      "coat_roughness": {
                        "value": 0.0
                      },
                      "coat_roughness_inv": {
                        "value": false
                      },
                      "coating": {
                        "value": 0.0
                      },
                      "cutout_map_on": {
                        "value": true
                      },
                      "diff_rough_map_on": {
                        "value": true
                      },
                      "diff_roughness": {
                        "value": 0.0
                      },
                      "dispersion": {
                        "value": 0.0
                      },
                      "displacement_map_amt": {
                        "value": 1.0
                      },
                      "displacement_map_on": {
                        "value": true
                      },
                      "emission": {
                        "value": 1.0
                      },
                      "emission_map_on": {
                        "value": true
                      },
                      "emit_color": {
                        "value": [
                          0.0,
                          0.0,
                          0.0,
                          1.0
                        ]
                      },
                      "emit_color_map_on": {
                        "value": true
                      },
                      "emit_kelvin": {
                        "value": 6500.0
                      },
                      "emit_luminance": {
                        "value": 1500.0
                      },
                      "material_mode": {
                        "value": 0
                      },
                      "metalness": {
                        "value": 0.0
                      },
                      "metalness_map_on": {
                        "value": true
                      },
                      "refl_color": {
                        "value": [
                          1.0,
                          1.0,
                          1.0,
                          1.0
                        ]
                      },
                      "refl_color_map_on": {
                        "value": true
                      },
                      "reflectivity": {
                        "value": 1.0
                      },
                      "reflectivity_map_on": {
                        "value": true
                      },
                      "roughness": {
                        "value": 0.0
                      },
                      "roughness_inv": {
                        "value": false
                      },
                      "roughness_map_on": {
                        "value": true
                      },
                      "scattering": {
                        "value": 0.0
                      },
                      "scattering_map_on": {
                        "value": true
                      },
                      "sheen": {
                        "value": 0.0
                      },
                      "sheen_color": {
                        "value": [
                          1.0,
                          1.0,
                          1.0,
                          1.0
                        ]
                      },
                      "sheen_color_map_on": {
                        "value": true
                      },
                      "sheen_map_on": {
                        "value": true
                      },
                      "sheen_rough_map_on": {
                        "value": true
                      },
                      "sheen_roughness": {
                        "value": 0.30000001192092896
                      },
                      "sss_color": {
                        "value": [
                          1.0,
                          1.0,
                          1.0,
                          1.0
                        ]
                      },
                      "sss_color_map_on": {
                        "value": true
                      },
                      "sss_depth": {
                        "value": 10.0
                      },
                      "sss_scale": {
                        "value": 1.0
                      },
                      "sss_scale_map_on": {
                        "value": true
                      },
                      "sss_scatter_color": {
                        "value": [
                          1000000.0,
                          500000.0,
                          250000.0,
                          1.0
                        ]
                      },
                      "thin_film": {
                        "value": 0.0
                      },
                      "thin_film_ior": {
                        "value": 1.2999999523162842
                      },
                      "thin_film_ior_map_on": {
                        "value": true
                      },
                      "thin_film_map_on": {
                        "value": true
                      },
                      "thin_film_thickness": {
                        "value": 0.0
                      },
                      "thin_walled": {
                        "value": false
                      },
                      "trans_color": {
                        "value": [
                          1.0,
                          1.0,
                          1.0,
                          1.0
                        ]
                      },
                      "trans_color_map_on": {
                        "value": true
                      },
                      "trans_depth": {
                        "value": 0.0
                      },
                      "trans_ior": {
                        "value": 1.5199999809265137
                      },
                      "trans_ior_map_on": {
                        "value": true
                      },
                      "trans_rough_map_on": {
                        "value": true
                      },
                      "trans_roughness": {
                        "value": 0.0
                      },
                      "trans_roughness_inv": {
                        "value": false
                      },
                      "trans_roughness_lock": {
                        "value": true
                      },
                      "trans_scatter_aniso": {
                        "value": 0.0
                      },
                      "trans_scatter_color": {
                        "value": [
                          0.0,
                          0.0,
                          0.0,
                          1.0
                        ]
                      },
                      "transparency": {
                        "value": 0.0
                      },
                      "transparency_map_on": {
                        "value": true
                      }
                    }
                  },
                  "SuperClassID": {
                    "value": 3072
                  }
                }
              },
              "AmbientColor": {
                "value": [
                  0.5,
                  0.5,
                  0.5
                ]
              },
              "DiffuseColor": {
                "value": [
                  0.5,
                  0.5,
                  0.5
                ]
              },
              "EmissiveColor": {
                "value": [
                  0.0,
                  0.0,
                  0.0
                ]
              },
              "EmissiveFactor": {
                "value": 0.0
              },
              "MultiLayer": {
                "value": false
              },
              "ShadingModel": {
                "value": "unknown"
              },
              "ShininessExponent": {
                "value": 1024.0
              },
              "SpecularColor": {
                "value": [
                  1.0,
                  1.0,
                  1.0
                ]
              },
              "SpecularFactor": {
                "value": 2.0
              },
              "TransparencyFactor": {
                "value": 0.0
              },
              "启用": {
                "value": false
              }
            }
          }
        }
      },
      "name": "yumi"
    }
  ],
  "meshes": [
    {
      "name": "Circle_020",
      "primitives": [
        {
          "attributes": {
            "NORMAL": 1,
            "POSITION": 0,
            "TEXCOORD_0": 2
          },
          "indices": 3,
          "material": 0
        }
      ]
    }
  ],
  "nodes": [
    {
      "mesh": 0,
      "name": "Circle_020",
      "rotation": [
        -0.7071067690849304,
        -0.0,
        0.0,
        0.7071067690849304
      ],
      "scale": [
        0.009999999776482582,
        0.009999999776482582,
        0.009999999776482582
      ],
      "translation": [
        2.6876007268583635e-06,
        0.0,
        4.470227395358961e-06
      ]
    }
  ],
  "scenes": [
    {
      "nodes": [
        0
      ]
    }
  ]
}