{
  "accessors": [
    {
      "bufferView": 0,
      "componentType": 5126,
      "count": 2565,
      "max": [
        0.16662649810314178,
        0.7008911371231079,
        0.990683376789093
      ],
      "min": [
        -0.16662649810314178,
        -0.6992263197898865,
        -1.51518547847821e-25
      ],
      "name": "鬣狗/POSITION",
      "type": "VEC3"
    },
    {
      "bufferView": 0,
      "byteOffset": 12,
      "componentType": 5126,
      "count": 2565,
      "name": "鬣狗/NORMAL",
      "type": "VEC3"
    },
    {
      "bufferView": 0,
      "byteOffset": 24,
      "componentType": 5126,
      "count": 2565,
      "name": "鬣狗/TEXCOORD_0",
      "type": "VEC2"
    },
    {
      "bufferView": 0,
      "byteOffset": 32,
      "componentType": 5126,
      "count": 2565,
      "name": "鬣狗/COLOR_0",
      "type": "VEC4"
    },
    {
      "bufferView": 0,
      "byteOffset": 48,
      "componentType": 5123,
      "count": 2565,
      "name": "鬣狗/JOINTS_0",
      "type": "VEC4"
    },
    {
      "bufferView": 0,
      "byteOffset": 56,
      "componentType": 5126,
      "count": 2565,
      "name": "鬣狗/WEIGHTS_0",
      "type": "VEC4"
    },
    {
      "bufferView": 0,
      "byteOffset": 72,
      "componentType": 5123,
      "count": 2565,
      "name": "鬣狗/JOINTS_1",
      "type": "VEC4"
    },
    {
      "bufferView": 0,
      "byteOffset": 80,
      "componentType": 5126,
      "count": 2565,
      "name": "鬣狗/WEIGHTS_1",
      "type": "VEC4"
    },
    {
      "bufferView": 1,
      "componentType": 5123,
      "count": 12264,
      "name": "鬣狗/INDICES",
      "type": "SCALAR"
    },
    {
      "bufferView": 2,
      "componentType": 5126,
      "count": 26,
      "name": "/InverseBindMatrices",
      "type": "MAT4"
    }
  ],
  "asset": {
    "copyright": "Copyright (c) 2018-2020 Chukong Technologies Inc.",
    "generator": "FBX-glTF-conv",
    "version": "2.0"
  },
  "bufferViews": [
    {
      "buffer": 0,
      "byteLength": 246240,
      "byteStride": 96,
      "name": "鬣狗",
      "target": 34962
    },
    {
      "buffer": 0,
      "byteLength": 24528,
      "byteOffset": 246240,
      "target": 34963
    },
    {
      "buffer": 0,
      "byteLength": 1664,
      "byteOffset": 270768
    }
  ],
  "buffers": [
    {
      "byteLength": 272432,
      "uri": "out.bin"
    }
  ],
  "extras": {
    "FBX-glTF-conv": {
      "animationFrameRate": 30.0,
      "fbxFileHeaderInfo": {
        "creationTimeStamp": {
          "day": 5,
          "hour": 1,
          "millisecond": 242,
          "minute": 11,
          "month": 6,
          "second": 0,
          "year": 2025
        },
        "creator": "FBX SDK/FBX Plugins version 2019.2",
        "sceneInfo": {
          "author": "",
          "comment": "",
          "keywords": "",
          "original": {
            "applicationName": "3ds Max",
            "applicationVendor": "Autodesk",
            "applicationVersion": "2020",
            "fileName": "C:\\Users\\北远\\Desktop\\SSD资源\\动物\\dog\\dog.fbx"
          },
          "revision": "",
          "subject": "",
          "title": "",
          "url": "D:\\Cocos\\PlayAble\\SSD_PullWire\\assets\\Res\\Fbx\\animal\\dog\\dog.fbx"
        }
      }
    }
  },
  "images": [
    {
      "extras": {
        "FBX-glTF-conv": {
          "fileName": "F:\\WechatFile\\WeChat Files\\wxid_0anvoez9arj022\\FileStorage\\File\\2024-06\\丧尸鬣狗\\Texture\\Color.png",
          "relativeFileName": "F:\\WechatFile\\WeChat Files\\wxid_0anvoez9arj022\\FileStorage\\File\\2024-06\\丧尸鬣狗\\Texture\\Color.png"
        }
      },
      "name": "EnvSamplerTex",
      "uri": "data:image/png;base64,"
    }
  ],
  "materials": [
    {
      "extras": {
        "FBX-glTF-conv": {
          "raw": {
            "properties": {
              "ambient": {
                "value": [
                  0.0,
                  0.0,
                  0.0
                ]
              },
              "ambientFactor": {
                "value": 0.0
              },
              "bump": {
                "value": [
                  0.0,
                  0.0,
                  0.0
                ]
              },
              "bumpFactor": {
                "value": 1.0
              },
              "diffuse": {
                "texture": {
                  "index": 0
                },
                "value": [
                  0.800000011920929,
                  0.800000011920929,
                  0.800000011920929
                ]
              },
              "diffuseFactor": {
                "value": 1.0
              },
              "displacementColor": {
                "value": [
                  0.0,
                  0.0,
                  0.0
                ]
              },
              "displacementFactor": {
                "value": 1.0
              },
              "emissive": {
                "value": [
                  0.0,
                  0.0,
                  0.0
                ]
              },
              "emissiveFactor": {
                "value": 0.0
              },
              "normalMap": {
                "value": [
                  0.0,
                  0.0,
                  0.0
                ]
              },
              "reflection": {
                "value": [
                  0.0,
                  0.0,
                  0.0
                ]
              },
              "reflectionFactor": {
                "value": 1.0
              },
              "shadingModel": "phong",
              "shininess": {
                "value": 19.999998092651367
              },
              "specular": {
                "value": [
                  0.20000000298023224,
                  0.20000000298023224,
                  0.20000000298023224
                ]
              },
              "specularFactor": {
                "value": 1.0
              },
              "transparencyFactor": {
                "value": 0.0
              },
              "transparentColor": {
                "value": [
                  1.0,
                  1.0,
                  1.0
                ]
              },
              "vectorDisplacementColor": {
                "value": [
                  0.0,
                  0.0,
                  0.0
                ]
              },
              "vectorDisplacementFactor": {
                "value": 1.0
              }
            },
            "type": "phong"
          }
        }
      },
      "name": "M_鬣狗"
    }
  ],
  "meshes": [
    {
      "name": "鬣狗",
      "primitives": [
        {
          "attributes": {
            "COLOR_0": 3,
            "JOINTS_0": 4,
            "JOINTS_1": 6,
            "NORMAL": 1,
            "POSITION": 0,
            "TEXCOORD_0": 2,
            "WEIGHTS_0": 5,
            "WEIGHTS_1": 7
          },
          "indices": 8,
          "material": 0
        }
      ]
    }
  ],
  "nodes": [
    {
      "mesh": 0,
      "name": "鬣狗",
      "rotation": [
        -0.7071067690849304,
        -0.0,
        0.0,
        0.7071067690849304
      ],
      "skin": 0
    },
    {
      "children": [
        2
      ],
      "name": "Bip001",
      "rotation": [
        -0.04915107414126396,
        -0.04915134608745575,
        -0.7053960561752319,
        0.7053968906402588
      ],
      "translation": [
        1.7870513957518597e-08,
        0.6114967465400696,
        -0.40882977843284607
      ]
    },
    {
      "children": [
        3
      ],
      "name": "Bip001 Pelvis",
      "rotation": [
        -0.49999964237213135,
        -0.5000003576278687,
        -0.49999961256980896,
        0.5000003576278687
      ]
    },
    {
      "children": [
        4,
        22,
        27,
        32
      ],
      "name": "Bip001 Spine",
      "rotation": [
        -2.070247091978672e-06,
        -6.842722086730646e-07,
        -0.01393025740981102,
        0.9999029636383057
      ],
      "translation": [
        0.1639140099287033,
        0.04809875413775444,
        2.1206215450320087e-08
      ]
    },
    {
      "children": [
        5
      ],
      "name": "Bip001 Spine1",
      "translation": [
        0.1737227588891983,
        -0.00019298553525004536,
        -5.268521174883745e-10
      ]
    },
    {
      "children": [
        6,
        10,
        16
      ],
      "name": "Bip001 Neck",
      "rotation": [
        8.984493704566887e-10,
        2.204057096832912e-07,
        -0.08074576407670975,
        0.9967347383499146
      ],
      "translation": [
        0.24227450788021088,
        -0.07925441861152649,
        5.633555844042348e-09
      ]
    },
    {
      "children": [
        7
      ],
      "name": "Bip001 Neck1",
      "translation": [
        0.12446601688861847,
        -9.918212890625e-05,
        -2.703745838328331e-10
      ]
    },
    {
      "children": [
        8,
        9
      ],
      "name": "Bip001 Head",
      "rotation": [
        -8.729820755171147e-10,
        -2.109722458953911e-07,
        0.07728982716798782,
        0.9970086812973022
      ],
      "translation": [
        0.12446605414152145,
        2.8421708795129297e-16,
        -1.8189894306509108e-13
      ]
    },
    {
      "name": "Bip001 HeadNub",
      "translation": [
        0.2754609286785126,
        1.3732910701946821e-06,
        1.1856614037242252e-06
      ]
    },
    {
      "name": "Bone001",
      "rotation": [
        0.9740180373191833,
        0.22647042572498322,
        7.337035867749364e-08,
        -8.289065362987458e-07
      ],
      "translation": [
        0.10170227289199829,
        0.10246440768241882,
        1.481692066818141e-07
      ]
    },
    {
      "children": [
        11
      ],
      "name": "Bip001 L Clavicle",
      "rotation": [
        0.6953416466712952,
        0.12845145165920258,
        0.7069389224052429,
        0.015414264984428883
      ],
      "translation": [
        -0.03134830296039581,
        0.0015681457007303834,
        0.019781196489930153
      ]
    },
    {
      "children": [
        12
      ],
      "name": "Bip001 L UpperArm",
      "rotation": [
        -0.52470463514328,
        0.5500070452690125,
        -0.33655819296836853,
        0.5557929873466492
      ],
      "translation": [
        0.09012887626886368,
        -1.5258788721439487e-07,
        0.0
      ]
    },
    {
      "children": [
        13
      ],
      "name": "Bip001 L Forearm",
      "rotation": [
        -5.4517109049356804e-08,
        3.6312037821062404e-09,
        -0.006814195308834314,
        0.9999767541885376
      ],
      "translation": [
        0.29935500025749207,
        0.0,
        9.53674295089968e-09
      ]
    },
    {
      "children": [
        14
      ],
      "name": "Bip001 L Hand",
      "rotation": [
        -0.7030450701713562,
        0.07299972325563431,
        -0.0730578601360321,
        0.7036058902740479
      ],
      "translation": [
        0.26041194796562195,
        -2.8610228852699038e-08,
        -1.776356799695581e-17
      ]
    },
    {
      "children": [
        15
      ],
      "name": "Bip001 L Finger0",
      "rotation": [
        -0.0002805145049933344,
        0.7105064988136292,
        -0.0002828378928825259,
        0.7036905288696289
      ],
      "translation": [
        0.13235074281692505,
        0.001565370592288673,
        -0.05413782224059105
      ]
    },
    {
      "name": "Bip001 L Finger0Nub",
      "rotation": [
        1.6968695035757264e-06,
        -6.780037438147701e-07,
        -5.371973657020135e-07,
        1.0
      ],
      "translation": [
        0.05185987427830696,
        -6.914139021318988e-07,
        4.887580757895194e-07
      ]
    },
    {
      "children": [
        17
      ],
      "name": "Bip001 R Clavicle",
      "rotation": [
        -0.6953415870666504,
        -0.12845338881015778,
        0.706938624382019,
        0.015416227281093597
      ],
      "translation": [
        -0.03134826570749283,
        0.0015682983212172985,
        -0.019781626760959625
      ]
    },
    {
      "children": [
        18
      ],
      "name": "Bip001 R UpperArm",
      "rotation": [
        0.5247043967247009,
        -0.5500068664550781,
        -0.33655846118927,
        0.5557932257652283
      ],
      "translation": [
        0.09012886881828308,
        1.4210854397564648e-16,
        -1.907348590179936e-08
      ]
    },
    {
      "children": [
        19
      ],
      "name": "Bip001 R Forearm",
      "rotation": [
        -1.1505806973843846e-08,
        2.872436732914707e-09,
        -0.006814193446189165,
        0.9999767541885376
      ],
      "translation": [
        0.29935500025749207,
        -1.4305114426349519e-08,
        8.881783998477905e-18
      ]
    },
    {
      "children": [
        20
      ],
      "name": "Bip001 R Hand",
      "rotation": [
        0.7030456066131592,
        -0.07299971580505371,
        -0.0730578750371933,
        0.7036052942276001
      ],
      "translation": [
        0.2604120373725891,
        3.552713599391162e-17,
        4.76837147544984e-09
      ]
    },
    {
      "children": [
        21
      ],
      "name": "Bip001 R Finger0",
      "rotation": [
        0.00027954005054198205,
        -0.7105064392089844,
        -0.00028335023671388626,
        0.7036905288696289
      ],
      "translation": [
        0.13235075771808624,
        0.0015654182061553001,
        0.054137859493494034
      ]
    },
    {
      "name": "Bip001 R Finger0Nub",
      "rotation": [
        6.556505240951083e-07,
        1.023058302962454e-06,
        1.0,
        -5.441841040010331e-07
      ],
      "scale": [
        -1.0,
        -1.0,
        -1.0
      ],
      "translation": [
        0.051859911531209946,
        4.76837158203125e-07,
        -4.839897087549616e-07
      ]
    },
    {
      "children": [
        23
      ],
      "name": "Bip001 L Thigh",
      "rotation": [
        0.6156381964683533,
        0.7858644127845764,
        0.053460344672203064,
        0.023426013067364693
      ],
      "translation": [
        -0.1625104546546936,
        -0.05264648422598839,
        0.08861099928617477
      ]
    },
    {
      "children": [
        24
      ],
      "name": "Bip001 L Calf",
      "rotation": [
        1.427833495881714e-07,
        6.425649701213842e-08,
        -0.27877992391586304,
        0.9603549838066101
      ],
      "translation": [
        0.2542456090450287,
        -3.814697180359872e-08,
        -1.907348590179936e-08
      ]
    },
    {
      "children": [
        25
      ],
      "name": "Bip001 L Foot",
      "rotation": [
        -0.12418033182621002,
        -0.0569278709590435,
        0.2953987717628479,
        0.9455569982528687
      ],
      "translation": [
        0.20516029000282288,
        7.629394360719743e-08,
        9.53674295089968e-09
      ]
    },
    {
      "children": [
        26
      ],
      "name": "Bip001 L Toe0",
      "rotation": [
        4.802539592674293e-07,
        -4.1571661313355435e-07,
        0.7071067690849304,
        0.7071067690849304
      ],
      "translation": [
        0.1832704395055771,
        0.07866252958774567,
        -7.987976277945563e-05
      ]
    },
    {
      "name": "Bip001 L Toe0Nub",
      "rotation": [
        5.062174182057788e-07,
        -1.6437881811270927e-07,
        1.0,
        6.724150125592132e-07
      ],
      "scale": [
        -1.0,
        -1.0,
        -1.0
      ],
      "translation": [
        0.024892235174775124,
        9.298324243900424e-08,
        -2.288818308215923e-07
      ]
    },
    {
      "children": [
        28
      ],
      "name": "Bip001 R Thigh",
      "rotation": [
        0.6156381368637085,
        0.7858645915985107,
        -0.05345779284834862,
        -0.023427357897162437
      ],
      "translation": [
        -0.1625104397535324,
        -0.05264602601528168,
        -0.08861102908849716
      ]
    },
    {
      "children": [
        29
      ],
      "name": "Bip001 R Calf",
      "rotation": [
        2.5391810254404845e-07,
        8.630242831486612e-08,
        -0.2787799835205078,
        0.9603549838066101
      ],
      "translation": [
        0.2542456090450287,
        -1.1444091541079615e-07,
        9.53674295089968e-09
      ]
    },
    {
      "children": [
        30
      ],
      "name": "Bip001 R Foot",
      "rotation": [
        0.12417903542518616,
        0.05692743510007858,
        0.2953988313674927,
        0.945557177066803
      ],
      "translation": [
        0.20516018569469452,
        7.629394360719743e-08,
        9.53674295089968e-09
      ]
    },
    {
      "children": [
        31
      ],
      "name": "Bip001 R Toe0",
      "rotation": [
        5.937088758400932e-07,
        -6.042457130206458e-07,
        0.7071067094802856,
        0.7071068286895752
      ],
      "translation": [
        0.18327045440673828,
        0.07866241782903671,
        8.007049473235384e-05
      ]
    },
    {
      "name": "Bip001 R Toe0Nub",
      "translation": [
        0.024892540648579597,
        1.4185906138663995e-07,
        3.623962356869015e-07
      ]
    },
    {
      "children": [
        33
      ],
      "name": "Bip001 Tail",
      "rotation": [
        -2.244022034858517e-08,
        -2.574545078459778e-06,
        0.9231414198875427,
        0.3844606280326843
      ],
      "translation": [
        -0.32682880759239197,
        -0.09009566903114319,
        -2.344729779224508e-07
      ]
    },
    {
      "name": "Bip001 TailNub",
      "rotation": [
        0.7073878049850464,
        0.7068256139755249,
        4.220335938498465e-07,
        -1.0339873597331461e-06
      ],
      "translation": [
        0.2166173905134201,
        4.577636616431846e-07,
        -3.387857532288763e-07
      ]
    }
  ],
  "samplers": [
    {}
  ],
  "scenes": [
    {
      "nodes": [
        0,
        1
      ]
    }
  ],
  "skins": [
    {
      "inverseBindMatrices": 9,
      "joints": [
        2,
        3,
        4,
        22,
        23,
        27,
        28,
        5,
        11,
        12,
        17,
        18,
        6,
        7,
        9,
        10,
        16,
        32,
        29,
        30,
        19,
        20,
        24,
        25,
        13,
        14
      ]
    }
  ],
  "textures": [
    {
      "name": "EnvSamplerTex",
      "sampler": 0,
      "source": 0
    }
  ]
}