{
  "accessors": [
    {
      "bufferView": 0,
      "componentType": 5126,
      "count": 908,
      "max": [
        0.09098300337791443,
        0.23982499539852142,
        0.04070700332522392
      ],
      "min": [
        -0.09098900854587555,
        0.0,
        -0.03328299894928932
      ],
      "name": "TieQiao_Material0/POSITION",
      "type": "VEC3"
    },
    {
      "bufferView": 0,
      "byteOffset": 12,
      "componentType": 5126,
      "count": 908,
      "name": "TieQiao_Material0/NORMAL",
      "type": "VEC3"
    },
    {
      "bufferView": 0,
      "byteOffset": 24,
      "componentType": 5126,
      "count": 908,
      "name": "TieQiao_Material0/TEXCOORD_0",
      "type": "VEC2"
    },
    {
      "bufferView": 1,
      "componentType": 5123,
      "count": 5058,
      "name": "TieQiao_Material0/INDICES",
      "type": "SCALAR"
    },
    {
      "bufferView": 2,
      "componentType": 5126,
      "count": 573,
      "max": [
        0.05545699968934059,
        0.7995889782905579,
        -0.011634000577032566
      ],
      "min": [
        -0.055463001132011414,
        0.6064689755439758,
        -0.04070700332522392
      ],
      "name": "TieQiao_Material0/POSITION",
      "type": "VEC3"
    },
    {
      "bufferView": 2,
      "byteOffset": 12,
      "componentType": 5126,
      "count": 573,
      "name": "TieQiao_Material0/NORMAL",
      "type": "VEC3"
    },
    {
      "bufferView": 2,
      "byteOffset": 24,
      "componentType": 5126,
      "count": 573,
      "name": "TieQiao_Material0/TEXCOORD_0",
      "type": "VEC2"
    },
    {
      "bufferView": 3,
      "componentType": 5123,
      "count": 2856,
      "name": "TieQiao_Material0/INDICES",
      "type": "SCALAR"
    },
    {
      "bufferView": 4,
      "componentType": 5126,
      "count": 80,
      "max": [
        0.013011999428272247,
        0.31508198380470276,
        -0.006982999853789806
      ],
      "min": [
        -0.01291799545288086,
        0.2389950007200241,
        -0.03429099917411804
      ],
      "name": "TieQiao_Material0/POSITION",
      "type": "VEC3"
    },
    {
      "bufferView": 4,
      "byteOffset": 12,
      "componentType": 5126,
      "count": 80,
      "name": "TieQiao_Material0/NORMAL",
      "type": "VEC3"
    },
    {
      "bufferView": 4,
      "byteOffset": 24,
      "componentType": 5126,
      "count": 80,
      "name": "TieQiao_Material0/TEXCOORD_0",
      "type": "VEC2"
    },
    {
      "bufferView": 5,
      "componentType": 5123,
      "count": 324,
      "name": "TieQiao_Material0/INDICES",
      "type": "SCALAR"
    },
    {
      "bufferView": 6,
      "componentType": 5126,
      "count": 40,
      "max": [
        0.012995004653930664,
        0.6068840026855469,
        -0.008150000125169754
      ],
      "min": [
        -0.012973003089427948,
        0.3147159814834595,
        -0.038961999118328094
      ],
      "name": "TieQiao_Material0/POSITION",
      "type": "VEC3"
    },
    {
      "bufferView": 6,
      "byteOffset": 12,
      "componentType": 5126,
      "count": 40,
      "name": "TieQiao_Material0/NORMAL",
      "type": "VEC3"
    },
    {
      "bufferView": 6,
      "byteOffset": 24,
      "componentType": 5126,
      "count": 40,
      "name": "TieQiao_Material0/TEXCOORD_0",
      "type": "VEC2"
    },
    {
      "bufferView": 7,
      "componentType": 5123,
      "count": 108,
      "name": "TieQiao_Material0/INDICES",
      "type": "SCALAR"
    }
  ],
  "asset": {
    "copyright": "Copyright (c) 2018-2020 Chukong Technologies Inc.",
    "generator": "FBX-glTF-conv",
    "version": "2.0"
  },
  "bufferViews": [
    {
      "buffer": 0,
      "byteLength": 29056,
      "byteStride": 32,
      "name": "TieQiao_Material0",
      "target": 34962
    },
    {
      "buffer": 0,
      "byteLength": 10116,
      "byteOffset": 29056,
      "target": 34963
    },
    {
      "buffer": 0,
      "byteLength": 18336,
      "byteOffset": 39172,
      "byteStride": 32,
      "name": "TieQiao_Material0",
      "target": 34962
    },
    {
      "buffer": 0,
      "byteLength": 5712,
      "byteOffset": 57508,
      "target": 34963
    },
    {
      "buffer": 0,
      "byteLength": 2560,
      "byteOffset": 63220,
      "byteStride": 32,
      "name": "TieQiao_Material0",
      "target": 34962
    },
    {
      "buffer": 0,
      "byteLength": 648,
      "byteOffset": 65780,
      "target": 34963
    },
    {
      "buffer": 0,
      "byteLength": 1280,
      "byteOffset": 66428,
      "byteStride": 32,
      "name": "TieQiao_Material0",
      "target": 34962
    },
    {
      "buffer": 0,
      "byteLength": 216,
      "byteOffset": 67708,
      "target": 34963
    }
  ],
  "buffers": [
    {
      "byteLength": 67924,
      "uri": "out.bin"
    }
  ],
  "extras": {
    "FBX-glTF-conv": {
      "animationFrameRate": 30.0,
      "fbxFileHeaderInfo": {
        "creationTimeStamp": {
          "day": 11,
          "hour": 18,
          "millisecond": 860,
          "minute": 5,
          "month": 6,
          "second": 31,
          "year": 2025
        },
        "creator": "FBX SDK/FBX Plugins version 2019.2",
        "sceneInfo": {
          "author": "",
          "comment": "",
          "keywords": "",
          "original": {
            "applicationName": "3ds Max",
            "applicationVendor": "Autodesk",
            "applicationVersion": "2020",
            "fileName": "C:\\Users\\北远\\Desktop\\L资源优化06.09\\tieqiao.fbx"
          },
          "revision": "",
          "subject": "",
          "title": "",
          "url": "D:\\Cocos\\PlayAble\\L_DefendTheCup\\assets\\Res\\Fbx\\Map\\zhuangshi\\dixing\\tieqiao.fbx"
        }
      }
    }
  },
  "images": [
    {
      "extras": {
        "FBX-glTF-conv": {
          "fileName": "V:\\美术素材\\模型素材\\L项目\\道具类\\铁锹\\10612415_ca985c8895f2d3846b4da87a8c845ca7\\3d66Model-10612415-files-25.jpg",
          "relativeFileName": "V:\\美术素材\\模型素材\\L项目\\道具类\\铁锹\\10612415_ca985c8895f2d3846b4da87a8c845ca7\\3d66Model-10612415-files-25.jpg"
        }
      },
      "name": "file_3d66Model_10612415_files_25_2",
      "uri": "3d66Model-10612415-files-25.jpg"
    }
  ],
  "materials": [
    {
      "extras": {
        "FBX-glTF-conv": {
          "raw": {
            "properties": {
              "ambient": {
                "value": [
                  0.0,
                  0.0,
                  0.0
                ]
              },
              "ambientFactor": {
                "value": 0.0
              },
              "bump": {
                "value": [
                  0.0,
                  0.0,
                  0.0
                ]
              },
              "bumpFactor": {
                "value": 1.0
              },
              "diffuse": {
                "value": [
                  0.4000000059604645,
                  0.4000000059604645,
                  0.4000000059604645
                ]
              },
              "diffuseFactor": {
                "value": 1.0
              },
              "displacementColor": {
                "value": [
                  0.0,
                  0.0,
                  0.0
                ]
              },
              "displacementFactor": {
                "value": 1.0
              },
              "emissive": {
                "value": [
                  0.0,
                  0.0,
                  0.0
                ]
              },
              "emissiveFactor": {
                "value": 0.0
              },
              "normalMap": {
                "value": [
                  0.0,
                  0.0,
                  0.0
                ]
              },
              "reflection": {
                "value": [
                  0.0,
                  0.0,
                  0.0
                ]
              },
              "reflectionFactor": {
                "value": 1.0
              },
              "shadingModel": "phong",
              "shininess": {
                "value": 1.0717734098434448
              },
              "specular": {
                "value": [
                  0.0,
                  0.0,
                  0.0
                ]
              },
              "specularFactor": {
                "value": 0.0
              },
              "transparencyFactor": {
                "value": 0.0
              },
              "transparentColor": {
                "value": [
                  1.0,
                  1.0,
                  1.0
                ]
              },
              "vectorDisplacementColor": {
                "value": [
                  0.0,
                  0.0,
                  0.0
                ]
              },
              "vectorDisplacementFactor": {
                "value": 1.0
              }
            },
            "type": "phong"
          }
        }
      },
      "name": "lambert7"
    },
    {
      "extras": {
        "FBX-glTF-conv": {
          "raw": {
            "properties": {
              "ambient": {
                "value": [
                  1.0,
                  1.0,
                  1.0
                ]
              },
              "ambientFactor": {
                "value": 0.0
              },
              "bump": {
                "value": [
                  0.0,
                  0.0,
                  0.0
                ]
              },
              "bumpFactor": {
                "value": 1.0
              },
              "diffuse": {
                "texture": {
                  "index": 0
                },
                "value": [
                  0.800000011920929,
                  0.800000011920929,
                  0.800000011920929
                ]
              },
              "diffuseFactor": {
                "value": 1.0
              },
              "displacementColor": {
                "value": [
                  0.0,
                  0.0,
                  0.0
                ]
              },
              "displacementFactor": {
                "value": 1.0
              },
              "emissive": {
                "value": [
                  0.0,
                  0.0,
                  0.0
                ]
              },
              "emissiveFactor": {
                "value": 0.0
              },
              "normalMap": {
                "value": [
                  0.0,
                  0.0,
                  0.0
                ]
              },
              "reflection": {
                "value": [
                  0.0,
                  0.0,
                  0.0
                ]
              },
              "reflectionFactor": {
                "value": 1.0
              },
              "shadingModel": "phong",
              "shininess": {
                "value": 33.9999885559082
              },
              "specular": {
                "value": [
                  0.3499999940395355,
                  0.3499999940395355,
                  0.3499999940395355
                ]
              },
              "specularFactor": {
                "value": 1.0
              },
              "transparencyFactor": {
                "value": 0.0
              },
              "transparentColor": {
                "value": [
                  1.0,
                  1.0,
                  1.0
                ]
              },
              "vectorDisplacementColor": {
                "value": [
                  0.0,
                  0.0,
                  0.0
                ]
              },
              "vectorDisplacementFactor": {
                "value": 1.0
              }
            },
            "type": "phong"
          }
        }
      },
      "name": "TieQiao1"
    },
    {
      "extras": {
        "FBX-glTF-conv": {
          "raw": {
            "properties": {
              "ambient": {
                "value": [
                  0.0,
                  0.0,
                  0.0
                ]
              },
              "ambientFactor": {
                "value": 0.0
              },
              "bump": {
                "value": [
                  0.0,
                  0.0,
                  0.0
                ]
              },
              "bumpFactor": {
                "value": 1.0
              },
              "diffuse": {
                "value": [
                  0.800000011920929,
                  0.0,
                  0.0
                ]
              },
              "diffuseFactor": {
                "value": 1.0
              },
              "displacementColor": {
                "value": [
                  0.0,
                  0.0,
                  0.0
                ]
              },
              "displacementFactor": {
                "value": 1.0
              },
              "emissive": {
                "value": [
                  0.0,
                  0.0,
                  0.0
                ]
              },
              "emissiveFactor": {
                "value": 0.0
              },
              "normalMap": {
                "value": [
                  0.0,
                  0.0,
                  0.0
                ]
              },
              "reflection": {
                "value": [
                  0.0,
                  0.0,
                  0.0
                ]
              },
              "reflectionFactor": {
                "value": 1.0
              },
              "shadingModel": "phong",
              "shininess": {
                "value": 6.31179141998291
              },
              "specular": {
                "value": [
                  0.5,
                  0.5,
                  0.5
                ]
              },
              "specularFactor": {
                "value": 1.0
              },
              "transparencyFactor": {
                "value": 0.0
              },
              "transparentColor": {
                "value": [
                  1.0,
                  1.0,
                  1.0
                ]
              },
              "vectorDisplacementColor": {
                "value": [
                  0.0,
                  0.0,
                  0.0
                ]
              },
              "vectorDisplacementFactor": {
                "value": 1.0
              }
            },
            "type": "phong"
          }
        }
      },
      "name": "blinn15"
    },
    {
      "extras": {
        "FBX-glTF-conv": {
          "raw": {
            "properties": {
              "ambient": {
                "value": [
                  0.0,
                  0.0,
                  0.0
                ]
              },
              "ambientFactor": {
                "value": 0.0
              },
              "bump": {
                "value": [
                  0.0,
                  0.0,
                  0.0
                ]
              },
              "bumpFactor": {
                "value": 1.0
              },
              "diffuse": {
                "texture": {
                  "index": 0
                },
                "value": [
                  0.800000011920929,
                  0.800000011920929,
                  0.800000011920929
                ]
              },
              "diffuseFactor": {
                "value": 1.0
              },
              "displacementColor": {
                "value": [
                  0.0,
                  0.0,
                  0.0
                ]
              },
              "displacementFactor": {
                "value": 1.0
              },
              "emissive": {
                "value": [
                  0.0,
                  0.0,
                  0.0
                ]
              },
              "emissiveFactor": {
                "value": 0.0
              },
              "normalMap": {
                "value": [
                  0.0,
                  0.0,
                  0.0
                ]
              },
              "reflection": {
                "value": [
                  0.0,
                  0.0,
                  0.0
                ]
              },
              "reflectionFactor": {
                "value": 1.0
              },
              "shadingModel": "phong",
              "shininess": {
                "value": 1.0717734098434448
              },
              "specular": {
                "value": [
                  0.0,
                  0.0,
                  0.0
                ]
              },
              "specularFactor": {
                "value": 0.0
              },
              "transparencyFactor": {
                "value": 0.0
              },
              "transparentColor": {
                "value": [
                  1.0,
                  1.0,
                  1.0
                ]
              },
              "vectorDisplacementColor": {
                "value": [
                  0.0,
                  0.0,
                  0.0
                ]
              },
              "vectorDisplacementFactor": {
                "value": 1.0
              }
            },
            "type": "phong"
          }
        }
      },
      "name": "lambert8"
    }
  ],
  "meshes": [
    {
      "name": "TieQiao",
      "primitives": [
        {
          "attributes": {
            "NORMAL": 1,
            "POSITION": 0,
            "TEXCOORD_0": 2
          },
          "indices": 3,
          "material": 0
        },
        {
          "attributes": {
            "NORMAL": 5,
            "POSITION": 4,
            "TEXCOORD_0": 6
          },
          "indices": 7,
          "material": 1
        },
        {
          "attributes": {
            "NORMAL": 9,
            "POSITION": 8,
            "TEXCOORD_0": 10
          },
          "indices": 11,
          "material": 2
        },
        {
          "attributes": {
            "NORMAL": 13,
            "POSITION": 12,
            "TEXCOORD_0": 14
          },
          "indices": 15,
          "material": 3
        }
      ]
    }
  ],
  "nodes": [
    {
      "mesh": 0,
      "name": "TieQiao"
    }
  ],
  "samplers": [
    {}
  ],
  "scenes": [
    {
      "nodes": [
        0
      ]
    }
  ],
  "textures": [
    {
      "name": "file_3d66Model_10612415_files_25_2",
      "sampler": 0,
      "source": 0
    }
  ]
}