{
  "accessors": [
    {
      "bufferView": 0,
      "componentType": 5126,
      "count": 976,
      "max": [
        1.3384602069854736,
        1.257338523864746,
        1.3969463109970093
      ],
      "min": [
        -1.0678987503051758,
        -1.2556332349777222,
        -0.1943444460630417
      ],
      "name": "SM_Rocks_Formation_03_LOD0/POSITION",
      "type": "VEC3"
    },
    {
      "bufferView": 0,
      "byteOffset": 12,
      "componentType": 5126,
      "count": 976,
      "name": "SM_Rocks_Formation_03_LOD0/NORMAL",
      "type": "VEC3"
    },
    {
      "bufferView": 0,
      "byteOffset": 24,
      "componentType": 5126,
      "count": 976,
      "name": "SM_Rocks_Formation_03_LOD0/TEXCOORD_0",
      "type": "VEC2"
    },
    {
      "bufferView": 0,
      "byteOffset": 32,
      "componentType": 5126,
      "count": 976,
      "name": "SM_Rocks_Formation_03_LOD0/TEXCOORD_1",
      "type": "VEC2"
    },
    {
      "bufferView": 1,
      "componentType": 5123,
      "count": 4548,
      "name": "SM_Rocks_Formation_03_LOD0/INDICES",
      "type": "SCALAR"
    },
    {
      "bufferView": 2,
      "componentType": 5126,
      "count": 574,
      "max": [
        1.3358653783798218,
        1.257338523864746,
        1.4018031358718872
      ],
      "min": [
        -1.0660128593444824,
        -1.2590216398239136,
        -0.19646482169628143
      ],
      "name": "SM_Rocks_Formation_03_LOD1/POSITION",
      "type": "VEC3"
    },
    {
      "bufferView": 2,
      "byteOffset": 12,
      "componentType": 5126,
      "count": 574,
      "name": "SM_Rocks_Formation_03_LOD1/NORMAL",
      "type": "VEC3"
    },
    {
      "bufferView": 2,
      "byteOffset": 24,
      "componentType": 5126,
      "count": 574,
      "name": "SM_Rocks_Formation_03_LOD1/TEXCOORD_0",
      "type": "VEC2"
    },
    {
      "bufferView": 2,
      "byteOffset": 32,
      "componentType": 5126,
      "count": 574,
      "name": "SM_Rocks_Formation_03_LOD1/TEXCOORD_1",
      "type": "VEC2"
    },
    {
      "bufferView": 3,
      "componentType": 5123,
      "count": 2274,
      "name": "SM_Rocks_Formation_03_LOD1/INDICES",
      "type": "SCALAR"
    },
    {
      "bufferView": 4,
      "componentType": 5126,
      "count": 328,
      "max": [
        1.3393839597702026,
        1.264448881149292,
        1.4043383598327637
      ],
      "min": [
        -1.0724246501922607,
        -1.26576566696167,
        -0.1947510689496994
      ],
      "name": "SM_Rocks_Formation_03_LOD2/POSITION",
      "type": "VEC3"
    },
    {
      "bufferView": 4,
      "byteOffset": 12,
      "componentType": 5126,
      "count": 328,
      "name": "SM_Rocks_Formation_03_LOD2/NORMAL",
      "type": "VEC3"
    },
    {
      "bufferView": 4,
      "byteOffset": 24,
      "componentType": 5126,
      "count": 328,
      "name": "SM_Rocks_Formation_03_LOD2/TEXCOORD_0",
      "type": "VEC2"
    },
    {
      "bufferView": 4,
      "byteOffset": 32,
      "componentType": 5126,
      "count": 328,
      "name": "SM_Rocks_Formation_03_LOD2/TEXCOORD_1",
      "type": "VEC2"
    },
    {
      "bufferView": 5,
      "componentType": 5123,
      "count": 1134,
      "name": "SM_Rocks_Formation_03_LOD2/INDICES",
      "type": "SCALAR"
    },
    {
      "bufferView": 6,
      "componentType": 5126,
      "count": 195,
      "max": [
        1.367231845855713,
        1.264448881149292,
        1.4043383598327637
      ],
      "min": [
        -1.0919110774993896,
        -1.252519965171814,
        -0.1947510689496994
      ],
      "name": "SM_Rocks_Formation_03_LOD3/POSITION",
      "type": "VEC3"
    },
    {
      "bufferView": 6,
      "byteOffset": 12,
      "componentType": 5126,
      "count": 195,
      "name": "SM_Rocks_Formation_03_LOD3/NORMAL",
      "type": "VEC3"
    },
    {
      "bufferView": 6,
      "byteOffset": 24,
      "componentType": 5126,
      "count": 195,
      "name": "SM_Rocks_Formation_03_LOD3/TEXCOORD_0",
      "type": "VEC2"
    },
    {
      "bufferView": 6,
      "byteOffset": 32,
      "componentType": 5126,
      "count": 195,
      "name": "SM_Rocks_Formation_03_LOD3/TEXCOORD_1",
      "type": "VEC2"
    },
    {
      "bufferView": 7,
      "componentType": 5123,
      "count": 570,
      "name": "SM_Rocks_Formation_03_LOD3/INDICES",
      "type": "SCALAR"
    }
  ],
  "asset": {
    "copyright": "Copyright (c) 2018-2020 Chukong Technologies Inc.",
    "generator": "FBX-glTF-conv",
    "version": "2.0"
  },
  "bufferViews": [
    {
      "buffer": 0,
      "byteLength": 39040,
      "byteStride": 40,
      "name": "SM_Rocks_Formation_03_LOD0",
      "target": 34962
    },
    {
      "buffer": 0,
      "byteLength": 9096,
      "byteOffset": 39040,
      "target": 34963
    },
    {
      "buffer": 0,
      "byteLength": 22960,
      "byteOffset": 48136,
      "byteStride": 40,
      "name": "SM_Rocks_Formation_03_LOD1",
      "target": 34962
    },
    {
      "buffer": 0,
      "byteLength": 4548,
      "byteOffset": 71096,
      "target": 34963
    },
    {
      "buffer": 0,
      "byteLength": 13120,
      "byteOffset": 75644,
      "byteStride": 40,
      "name": "SM_Rocks_Formation_03_LOD2",
      "target": 34962
    },
    {
      "buffer": 0,
      "byteLength": 2268,
      "byteOffset": 88764,
      "target": 34963
    },
    {
      "buffer": 0,
      "byteLength": 7800,
      "byteOffset": 91032,
      "byteStride": 40,
      "name": "SM_Rocks_Formation_03_LOD3",
      "target": 34962
    },
    {
      "buffer": 0,
      "byteLength": 1140,
      "byteOffset": 98832,
      "target": 34963
    }
  ],
  "buffers": [
    {
      "byteLength": 99972,
      "uri": "out.bin"
    }
  ],
  "extras": {
    "FBX-glTF-conv": {
      "animationFrameRate": 30.0,
      "fbxFileHeaderInfo": {
        "creationTimeStamp": {
          "day": 3,
          "hour": 21,
          "millisecond": 957,
          "minute": 10,
          "month": 6,
          "second": 31,
          "year": 2025
        },
        "creator": "FBX SDK/FBX Plugins version 2019.2",
        "sceneInfo": {
          "author": "",
          "comment": "",
          "keywords": "",
          "original": {
            "applicationName": "3ds Max",
            "applicationVendor": "Autodesk",
            "applicationVersion": "2020",
            "fileName": "C:\\Users\\北远\\Desktop\\L资源文件未整理\\FBX\\SM_Rocks_Formation_03.FBX"
          },
          "revision": "",
          "subject": "",
          "title": "",
          "url": "D:\\Cocos\\PlayAble\\L_DefendTheCup\\assets\\Res\\Fbx\\Map\\zhuangshi\\ShiTou\\SM_Rocks_Formation_03.FBX"
        }
      }
    }
  },
  "images": [
    {
      "extras": {
        "FBX-glTF-conv": {
          "fileName": "E:\\handpainted\\NewRocks\\RockformationB\\RockFormationC\\Export\\Substance\\T_Rock_Formation_03_C.png",
          "relativeFileName": "E:\\handpainted\\NewRocks\\RockformationB\\RockFormationC\\Export\\Substance\\T_Rock_Formation_03_C.png"
        }
      },
      "name": "EnvSamplerTex",
      "uri": "data:image/png;base64,"
    },
    {
      "extras": {
        "FBX-glTF-conv": {
          "fileName": "E:\\handpainted\\NewRocks\\RockformationB\\RockFormationC\\Export\\Substance\\SM_RockFormation_C_Merged_NewRocks2_Normal.png",
          "relativeFileName": "E:\\handpainted\\NewRocks\\RockformationB\\RockFormationC\\Export\\Substance\\SM_RockFormation_C_Merged_NewRocks2_Normal.png"
        }
      },
      "name": "EnvSamplerTex",
      "uri": "data:image/png;base64,"
    }
  ],
  "materials": [
    {
      "extras": {
        "FBX-glTF-conv": {
          "raw": {
            "properties": {
              "ambient": {
                "value": [
                  0.0,
                  0.0,
                  0.0
                ]
              },
              "ambientFactor": {
                "value": 0.0
              },
              "bump": {
                "value": [
                  0.0,
                  0.0,
                  0.0
                ]
              },
              "bumpFactor": {
                "value": 1.0
              },
              "diffuse": {
                "texture": {
                  "index": 0
                },
                "value": [
                  0.800000011920929,
                  0.800000011920929,
                  0.800000011920929
                ]
              },
              "diffuseFactor": {
                "value": 1.0
              },
              "displacementColor": {
                "value": [
                  0.0,
                  0.0,
                  0.0
                ]
              },
              "displacementFactor": {
                "value": 1.0
              },
              "emissive": {
                "value": [
                  0.0,
                  0.0,
                  0.0
                ]
              },
              "emissiveFactor": {
                "value": 0.0
              },
              "normalMap": {
                "texture": {
                  "index": 1
                },
                "value": [
                  0.0,
                  0.0,
                  0.0
                ]
              },
              "reflection": {
                "value": [
                  0.0,
                  0.0,
                  0.0
                ]
              },
              "reflectionFactor": {
                "value": 1.0
              },
              "shadingModel": "phong",
              "shininess": {
                "value": 19.999998092651367
              },
              "specular": {
                "value": [
                  0.20000000298023224,
                  0.20000000298023224,
                  0.20000000298023224
                ]
              },
              "specularFactor": {
                "value": 1.0
              },
              "transparencyFactor": {
                "value": 0.0
              },
              "transparentColor": {
                "value": [
                  1.0,
                  1.0,
                  1.0
                ]
              },
              "vectorDisplacementColor": {
                "value": [
                  0.0,
                  0.0,
                  0.0
                ]
              },
              "vectorDisplacementFactor": {
                "value": 1.0
              }
            },
            "type": "phong"
          }
        }
      },
      "name": "M_Rock_Formation_03"
    }
  ],
  "meshes": [
    {
      "name": "SM_Rocks_Formation_03_LOD0",
      "primitives": [
        {
          "attributes": {
            "NORMAL": 1,
            "POSITION": 0,
            "TEXCOORD_0": 2,
            "TEXCOORD_1": 3
          },
          "indices": 4,
          "material": 0
        }
      ]
    },
    {
      "name": "SM_Rocks_Formation_03_LOD1",
      "primitives": [
        {
          "attributes": {
            "NORMAL": 6,
            "POSITION": 5,
            "TEXCOORD_0": 7,
            "TEXCOORD_1": 8
          },
          "indices": 9,
          "material": 0
        }
      ]
    },
    {
      "name": "SM_Rocks_Formation_03_LOD2",
      "primitives": [
        {
          "attributes": {
            "NORMAL": 11,
            "POSITION": 10,
            "TEXCOORD_0": 12,
            "TEXCOORD_1": 13
          },
          "indices": 14,
          "material": 0
        }
      ]
    },
    {
      "name": "SM_Rocks_Formation_03_LOD3",
      "primitives": [
        {
          "attributes": {
            "NORMAL": 16,
            "POSITION": 15,
            "TEXCOORD_0": 17,
            "TEXCOORD_1": 18
          },
          "indices": 19,
          "material": 0
        }
      ]
    }
  ],
  "nodes": [
    {
      "children": [
        1,
        2,
        3,
        4
      ],
      "name": "SM_Rocks_Formation_03",
      "rotation": [
        -0.7071067690849304,
        -0.0,
        0.0,
        0.7071067690849304
      ],
      "translation": [
        0.137660413980484,
        0.6039367914199829,
        0.0006583404610864818
      ]
    },
    {
      "mesh": 0,
      "name": "SM_Rocks_Formation_03_LOD0",
      "translation": [
        -0.137660413980484,
        0.0006583404610864818,
        -0.6039367914199829
      ]
    },
    {
      "mesh": 1,
      "name": "SM_Rocks_Formation_03_LOD1",
      "translation": [
        -0.137660413980484,
        0.0006583404610864818,
        -0.6039367914199829
      ]
    },
    {
      "mesh": 2,
      "name": "SM_Rocks_Formation_03_LOD2",
      "translation": [
        -0.137660413980484,
        0.0006583404610864818,
        -0.6039367914199829
      ]
    },
    {
      "mesh": 3,
      "name": "SM_Rocks_Formation_03_LOD3",
      "translation": [
        -0.137660413980484,
        0.0006583404610864818,
        -0.6039367914199829
      ]
    }
  ],
  "samplers": [
    {}
  ],
  "scenes": [
    {
      "nodes": [
        0
      ]
    }
  ],
  "textures": [
    {
      "name": "EnvSamplerTex",
      "sampler": 0,
      "source": 0
    },
    {
      "name": "EnvSamplerTex",
      "sampler": 0,
      "source": 1
    }
  ]
}