{
  "accessors": [
    {
      "bufferView": 0,
      "componentType": 5126,
      "count": 2272,
      "max": [
        1.947137713432312,
        5.345936298370361,
        7.187780380249023
      ],
      "min": [
        -1.947137713432312,
        -5.888797760009766,
        0.002112647984176874
      ],
      "name": "丧尸猛犸象/POSITION",
      "type": "VEC3"
    },
    {
      "bufferView": 0,
      "byteOffset": 12,
      "componentType": 5126,
      "count": 2272,
      "name": "丧尸猛犸象/NORMAL",
      "type": "VEC3"
    },
    {
      "bufferView": 0,
      "byteOffset": 24,
      "componentType": 5126,
      "count": 2272,
      "name": "丧尸猛犸象/TEXCOORD_0",
      "type": "VEC2"
    },
    {
      "bufferView": 0,
      "byteOffset": 32,
      "componentType": 5126,
      "count": 2272,
      "name": "丧尸猛犸象/TEXCOORD_1",
      "type": "VEC2"
    },
    {
      "bufferView": 0,
      "byteOffset": 40,
      "componentType": 5126,
      "count": 2272,
      "name": "丧尸猛犸象/COLOR_0",
      "type": "VEC4"
    },
    {
      "bufferView": 0,
      "byteOffset": 56,
      "componentType": 5123,
      "count": 2272,
      "name": "丧尸猛犸象/JOINTS_0",
      "type": "VEC4"
    },
    {
      "bufferView": 0,
      "byteOffset": 64,
      "componentType": 5126,
      "count": 2272,
      "name": "丧尸猛犸象/WEIGHTS_0",
      "type": "VEC4"
    },
    {
      "bufferView": 0,
      "byteOffset": 80,
      "componentType": 5123,
      "count": 2272,
      "name": "丧尸猛犸象/JOINTS_1",
      "type": "VEC4"
    },
    {
      "bufferView": 0,
      "byteOffset": 88,
      "componentType": 5126,
      "count": 2272,
      "name": "丧尸猛犸象/WEIGHTS_1",
      "type": "VEC4"
    },
    {
      "bufferView": 1,
      "componentType": 5123,
      "count": 10518,
      "name": "丧尸猛犸象/INDICES",
      "type": "SCALAR"
    },
    {
      "bufferView": 2,
      "componentType": 5126,
      "count": 29,
      "name": "/InverseBindMatrices",
      "type": "MAT4"
    }
  ],
  "asset": {
    "copyright": "Copyright (c) 2018-2020 Chukong Technologies Inc.",
    "generator": "FBX-glTF-conv",
    "version": "2.0"
  },
  "bufferViews": [
    {
      "buffer": 0,
      "byteLength": 236288,
      "byteStride": 104,
      "name": "丧尸猛犸象",
      "target": 34962
    },
    {
      "buffer": 0,
      "byteLength": 21036,
      "byteOffset": 236288,
      "target": 34963
    },
    {
      "buffer": 0,
      "byteLength": 1856,
      "byteOffset": 257324
    }
  ],
  "buffers": [
    {
      "byteLength": 259180,
      "uri": "out.bin"
    }
  ],
  "extras": {
    "FBX-glTF-conv": {
      "animationFrameRate": 30.0,
      "fbxFileHeaderInfo": {
        "creationTimeStamp": {
          "day": 5,
          "hour": 1,
          "millisecond": 248,
          "minute": 12,
          "month": 6,
          "second": 2,
          "year": 2025
        },
        "creator": "FBX SDK/FBX Plugins version 2019.2",
        "sceneInfo": {
          "author": "",
          "comment": "",
          "keywords": "",
          "original": {
            "applicationName": "3ds Max",
            "applicationVendor": "Autodesk",
            "applicationVersion": "2020",
            "fileName": "C:\\Users\\北远\\Desktop\\SSD资源\\动物\\elephant\\elephant.fbx"
          },
          "revision": "",
          "subject": "",
          "title": "",
          "url": "D:\\Cocos\\PlayAble\\SSD_0623_JHF_FaMuShengCun\\assets\\Res\\Fbx\\animal\\elephant\\elephant.fbx"
        }
      }
    }
  },
  "images": [
    {
      "extras": {
        "FBX-glTF-conv": {
          "fileName": "F:\\WechatFile\\WeChat Files\\wxid_0anvoez9arj022\\FileStorage\\File\\2024-06\\丧尸猛犸象\\Tex\\Color.png",
          "relativeFileName": "F:\\WechatFile\\WeChat Files\\wxid_0anvoez9arj022\\FileStorage\\File\\2024-06\\丧尸猛犸象\\Tex\\Color.png"
        }
      },
      "name": "EnvSamplerTex",
      "uri": "data:image/png;base64,"
    }
  ],
  "materials": [
    {
      "extras": {
        "FBX-glTF-conv": {
          "raw": {
            "properties": {
              "ambient": {
                "value": [
                  0.0,
                  0.0,
                  0.0
                ]
              },
              "ambientFactor": {
                "value": 0.0
              },
              "bump": {
                "value": [
                  0.0,
                  0.0,
                  0.0
                ]
              },
              "bumpFactor": {
                "value": 1.0
              },
              "diffuse": {
                "texture": {
                  "index": 0
                },
                "value": [
                  0.800000011920929,
                  0.800000011920929,
                  0.800000011920929
                ]
              },
              "diffuseFactor": {
                "value": 1.0
              },
              "displacementColor": {
                "value": [
                  0.0,
                  0.0,
                  0.0
                ]
              },
              "displacementFactor": {
                "value": 1.0
              },
              "emissive": {
                "value": [
                  0.0,
                  0.0,
                  0.0
                ]
              },
              "emissiveFactor": {
                "value": 0.0
              },
              "normalMap": {
                "value": [
                  0.0,
                  0.0,
                  0.0
                ]
              },
              "reflection": {
                "value": [
                  0.0,
                  0.0,
                  0.0
                ]
              },
              "reflectionFactor": {
                "value": 1.0
              },
              "shadingModel": "phong",
              "shininess": {
                "value": 19.999998092651367
              },
              "specular": {
                "value": [
                  0.20000000298023224,
                  0.20000000298023224,
                  0.20000000298023224
                ]
              },
              "specularFactor": {
                "value": 1.0
              },
              "transparencyFactor": {
                "value": 0.0
              },
              "transparentColor": {
                "value": [
                  1.0,
                  1.0,
                  1.0
                ]
              },
              "vectorDisplacementColor": {
                "value": [
                  0.0,
                  0.0,
                  0.0
                ]
              },
              "vectorDisplacementFactor": {
                "value": 1.0
              }
            },
            "type": "phong"
          }
        }
      },
      "name": "M_猛犸象"
    }
  ],
  "meshes": [
    {
      "name": "丧尸猛犸象",
      "primitives": [
        {
          "attributes": {
            "COLOR_0": 4,
            "JOINTS_0": 5,
            "JOINTS_1": 7,
            "NORMAL": 1,
            "POSITION": 0,
            "TEXCOORD_0": 2,
            "TEXCOORD_1": 3,
            "WEIGHTS_0": 6,
            "WEIGHTS_1": 8
          },
          "indices": 9,
          "material": 0
        }
      ]
    }
  ],
  "nodes": [
    {
      "mesh": 0,
      "name": "丧尸猛犸象",
      "rotation": [
        -0.7071067690849304,
        -0.0,
        0.0,
        0.7071067690849304
      ],
      "skin": 0
    },
    {
      "children": [
        2
      ],
      "name": "Bip001",
      "rotation": [
        -0.0807521864771843,
        -0.08075246214866638,
        -0.702480137348175,
        0.7024811506271362
      ],
      "translation": [
        -0.030900411307811737,
        2.696579933166504,
        -1.8683308362960815
      ]
    },
    {
      "children": [
        3,
        34
      ],
      "name": "Bip001 Pelvis",
      "rotation": [
        -0.49999964237213135,
        -0.5000003576278687,
        -0.49999961256980896,
        0.5000003576278687
      ],
      "translation": [
        0.0,
        0.0,
        -1.5258788721439487e-07
      ]
    },
    {
      "children": [
        4,
        24,
        29
      ],
      "name": "Bip001 Spine",
      "rotation": [
        -2.1083285446366062e-06,
        -7.186566222117108e-07,
        0.042309798300266266,
        0.9991045594215393
      ],
      "translation": [
        1.0621832609176636,
        -0.017472533509135246,
        1.4734267779203947e-06
      ]
    },
    {
      "children": [
        5
      ],
      "name": "Bip001 Spine1",
      "rotation": [
        1.5582283241499795e-09,
        2.203144617851649e-07,
        -0.08187355846166611,
        0.9966427087783813
      ],
      "translation": [
        1.4091182947158813,
        -0.0011727905366569757,
        -4.76837147544984e-09
      ]
    },
    {
      "children": [
        6,
        12,
        18
      ],
      "name": "Bip001 Neck",
      "translation": [
        1.492884635925293,
        -0.22987395524978638,
        3.099441414633475e-08
      ]
    },
    {
      "children": [
        7
      ],
      "name": "Bip001 L Clavicle",
      "rotation": [
        0.6775655746459961,
        0.2022496610879898,
        0.6774042844772339,
        0.20278900861740112
      ],
      "translation": [
        -0.8940597772598267,
        0.8730587959289551,
        0.48419979214668274
      ]
    },
    {
      "children": [
        8
      ],
      "name": "Bip001 L UpperArm",
      "rotation": [
        -0.5017611384391785,
        0.4552750289440155,
        -0.23204611241817474,
        0.6979362368583679
      ],
      "translation": [
        0.7255491614341736,
        -3.0517577442878974e-07,
        0.0
      ]
    },
    {
      "children": [
        9
      ],
      "name": "Bip001 L Forearm",
      "rotation": [
        6.329802886284597e-07,
        3.077572685583618e-08,
        -0.1224195659160614,
        0.9924784302711487
      ],
      "translation": [
        1.155907154083252,
        -7.629394360719743e-08,
        1.5258788721439487e-07
      ]
    },
    {
      "children": [
        10
      ],
      "name": "Bip001 L Hand",
      "rotation": [
        -0.06937255710363388,
        -2.49835076809162e-18,
        -1.4085037910289618e-17,
        0.9975908398628235
      ],
      "translation": [
        0.7958460450172424,
        -3.0517577442878974e-07,
        1.4210854397564648e-16
      ]
    },
    {
      "children": [
        11
      ],
      "name": "Bip001 L Finger0",
      "rotation": [
        -0.0003981608315370977,
        2.9665317511501366e-12,
        -7.4505792646561986e-09,
        0.9999999403953552
      ],
      "translation": [
        0.3460747003555298,
        3.0517577442878974e-07,
        7.629394360719743e-08
      ]
    },
    {
      "name": "Bip001 L Finger0Nub",
      "translation": [
        0.08652316778898239,
        5.4931642807787284e-06,
        3.43322744811303e-06
      ]
    },
    {
      "children": [
        13
      ],
      "name": "Bip001 R Clavicle",
      "rotation": [
        0.6775649785995483,
        0.20225144922733307,
        -0.6774038076400757,
        -0.20279093086719513
      ],
      "translation": [
        -0.8940597772598267,
        0.8730618357658386,
        -0.48419636487960815
      ]
    },
    {
      "children": [
        14
      ],
      "name": "Bip001 R UpperArm",
      "rotation": [
        0.5017606019973755,
        -0.4552747309207916,
        -0.2320464849472046,
        0.6979367136955261
      ],
      "translation": [
        0.7255493402481079,
        -3.0517577442878974e-07,
        0.0
      ]
    },
    {
      "children": [
        15
      ],
      "name": "Bip001 R Forearm",
      "rotation": [
        6.071727511880454e-07,
        -1.1083254314314672e-08,
        -0.122419573366642,
        0.9924784302711487
      ],
      "translation": [
        1.1559070348739624,
        1.5258788721439487e-07,
        -7.629394360719743e-08
      ]
    },
    {
      "children": [
        16
      ],
      "name": "Bip001 R Hand",
      "rotation": [
        0.06937255710363388,
        5.168658834264761e-10,
        7.432631399240108e-09,
        0.9975908398628235
      ],
      "translation": [
        0.7958458065986633,
        -2.8421708795129297e-16,
        1.4210854397564648e-16
      ]
    },
    {
      "children": [
        17
      ],
      "name": "Bip001 R Finger0",
      "rotation": [
        0.00039815803756937385,
        -1.7291978060873763e-18,
        1.3878477676445326e-17,
        0.9999999403953552
      ],
      "translation": [
        0.346074640750885,
        -1.5258788721439487e-07,
        0.0
      ]
    },
    {
      "name": "Bip001 R Finger0Nub",
      "rotation": [
        6.332934532338186e-08,
        8.651987855046173e-07,
        1.0,
        -6.705522537231445e-07
      ],
      "scale": [
        -1.0,
        -1.0,
        -1.0
      ],
      "translation": [
        0.08652270585298538,
        2.899169885495212e-06,
        2.670288040462765e-06
      ]
    },
    {
      "children": [
        19,
        20
      ],
      "name": "Bip001 Head",
      "rotation": [
        1.3396381781660693e-08,
        6.116899839980761e-07,
        -0.22861981391906738,
        0.9735158085823059
      ],
      "translation": [
        0.37438905239105225,
        0.0,
        -2.38418573772492e-09
      ]
    },
    {
      "name": "Bip001 HeadNub",
      "translation": [
        1.9221560955047607,
        8.544921911379788e-06,
        6.151199158921372e-06
      ]
    },
    {
      "children": [
        21
      ],
      "name": "Bone001",
      "rotation": [
        0.5035537481307983,
        0.8639639019966125,
        8.233380413003033e-07,
        -7.901832788093088e-08
      ],
      "translation": [
        0.9626205563545227,
        1.0317583084106445,
        0.030902564525604248
      ]
    },
    {
      "children": [
        22
      ],
      "name": "Bone002",
      "rotation": [
        8.306487550742425e-14,
        -3.2098571881250624e-15,
        -0.12388577312231064,
        0.9922964572906494
      ],
      "translation": [
        1.221665620803833,
        0.0,
        -3.661181935399327e-08
      ]
    },
    {
      "children": [
        23
      ],
      "name": "Bone003",
      "rotation": [
        -8.58459692763304e-14,
        -1.073224540785794e-14,
        -0.20881645381450653,
        0.9779548645019531
      ],
      "translation": [
        1.3436410427093506,
        -4.3029784137615934e-05,
        1.3525859543506158e-08
      ]
    },
    {
      "name": "Bone004",
      "translation": [
        0.9901199340820313,
        -6.103515488575795e-07,
        7.444374006126964e-08
      ]
    },
    {
      "children": [
        25
      ],
      "name": "Bip001 L Thigh",
      "rotation": [
        0.6457606554031372,
        0.7635399103164673,
        2.450135298204259e-06,
        1.0965621868308517e-06
      ],
      "translation": [
        -1.0569037199020386,
        0.107208251953125,
        0.8680066466331482
      ]
    },
    {
      "children": [
        26
      ],
      "name": "Bip001 L Calf",
      "rotation": [
        1.5941716355882818e-06,
        1.962719267112334e-07,
        -0.09983347356319427,
        0.9950041770935059
      ],
      "translation": [
        1.3842988014221191,
        -4.577636616431846e-07,
        7.629394360719743e-08
      ]
    },
    {
      "children": [
        27
      ],
      "name": "Bip001 L Foot",
      "rotation": [
        2.1666544114395947e-07,
        6.099204483689391e-07,
        0.06814954429864883,
        0.9976751208305359
      ],
      "translation": [
        0.9675636291503906,
        4.577636616431846e-07,
        0.0
      ]
    },
    {
      "children": [
        28
      ],
      "name": "Bip001 L Toe0",
      "rotation": [
        -1.457626410683588e-07,
        -1.1144279454811112e-07,
        0.7071062326431274,
        0.7071073055267334
      ],
      "translation": [
        0.31838977336883545,
        0.40974730253219604,
        9.155273232863692e-07
      ]
    },
    {
      "name": "Bip001 L Toe0Nub",
      "rotation": [
        -1.7763559923673032e-14,
        8.526510796242129e-14,
        1.0,
        4.470347292340193e-08
      ],
      "scale": [
        -1.0,
        -1.0,
        -1.0
      ],
      "translation": [
        0.04152877628803253,
        1.907348590179936e-08,
        7.629394360719743e-08
      ]
    },
    {
      "children": [
        30
      ],
      "name": "Bip001 R Thigh",
      "rotation": [
        0.6727092862129211,
        0.739906907081604,
        5.710146524506854e-07,
        -5.630757300423284e-07
      ],
      "translation": [
        -1.0569038391113281,
        0.10721313208341599,
        -0.8680060505867004
      ]
    },
    {
      "children": [
        31
      ],
      "name": "Bip001 R Calf",
      "rotation": [
        -1.0781774335555383e-06,
        -5.483078879819914e-08,
        -0.09983339160680771,
        0.9950041770935059
      ],
      "translation": [
        1.3842990398406982,
        1.5258788721439487e-07,
        0.0
      ]
    },
    {
      "children": [
        32
      ],
      "name": "Bip001 R Foot",
      "rotation": [
        -3.302887535028276e-06,
        3.055246224903385e-07,
        0.07048488408327103,
        0.9975128769874573
      ],
      "translation": [
        0.967563807964325,
        2.8421708795129297e-16,
        7.629394360719743e-08
      ]
    },
    {
      "children": [
        33
      ],
      "name": "Bip001 R Toe0",
      "rotation": [
        2.462003294567694e-06,
        -2.6655570763978176e-06,
        0.7071062326431274,
        0.7071073055267334
      ],
      "translation": [
        0.3491933345794678,
        0.4493928551673889,
        4.0435788832837716e-06
      ]
    },
    {
      "name": "Bip001 R Toe0Nub",
      "translation": [
        0.04152892902493477,
        -1.19209286886246e-09,
        7.629394360719743e-08
      ]
    },
    {
      "children": [
        35
      ],
      "name": "Bone005",
      "rotation": [
        0.514252781867981,
        0.8576386570930481,
        -7.57525072003773e-07,
        1.3483528391589061e-06
      ],
      "translation": [
        -0.8018380999565125,
        -0.4748593270778656,
        0.030900700017809868
      ]
    },
    {
      "children": [
        36
      ],
      "name": "Bone006",
      "rotation": [
        2.3546721416765025e-14,
        1.6785245339923788e-14,
        -0.20802158117294312,
        0.9781242609024048
      ],
      "translation": [
        1.0285550355911255,
        9.155273232863692e-07,
        3.1707894976307216e-08
      ]
    },
    {
      "children": [
        37
      ],
      "name": "Bone007",
      "rotation": [
        3.1864674744294663e-14,
        -3.1877547103994087e-15,
        -0.15458478033542633,
        0.987979531288147
      ],
      "translation": [
        0.9920662045478821,
        -3.0517577442878974e-07,
        4.3956969619785013e-08
      ]
    },
    {
      "children": [
        38
      ],
      "name": "Bone008",
      "rotation": [
        2.2389239073827838e-10,
        -2.123760715899703e-11,
        -0.09452679008245468,
        0.9955223202705383
      ],
      "translation": [
        0.9020074605941772,
        6.103515488575795e-07,
        4.4582264990822296e-08
      ]
    },
    {
      "name": "Bone009",
      "translation": [
        1.0273910760879517,
        3.0517577442878974e-07,
        5.159876437232924e-08
      ]
    }
  ],
  "samplers": [
    {}
  ],
  "scenes": [
    {
      "nodes": [
        0,
        1
      ]
    }
  ],
  "skins": [
    {
      "inverseBindMatrices": 10,
      "joints": [
        3,
        4,
        18,
        5,
        2,
        24,
        25,
        29,
        30,
        35,
        34,
        12,
        6,
        13,
        20,
        21,
        7,
        14,
        8,
        22,
        23,
        26,
        31,
        9,
        15,
        36,
        37,
        38,
        10
      ]
    }
  ],
  "textures": [
    {
      "name": "EnvSamplerTex",
      "sampler": 0,
      "source": 0
    }
  ]
}