{
  "accessors": [
    {
      "bufferView": 0,
      "componentType": 5126,
      "count": 432,
      "max": [
        0.32116517424583435,
        0.3275706171989441,
        0.31068307161331177
      ],
      "min": [
        -0.35329583287239075,
        -0.31555408239364624,
        -0.1019149050116539
      ],
      "name": "SM_Wheat_01a1_LOD0/POSITION",
      "type": "VEC3"
    },
    {
      "bufferView": 0,
      "byteOffset": 12,
      "componentType": 5126,
      "count": 432,
      "name": "SM_Wheat_01a1_LOD0/NORMAL",
      "type": "VEC3"
    },
    {
      "bufferView": 0,
      "byteOffset": 24,
      "componentType": 5126,
      "count": 432,
      "name": "SM_Wheat_01a1_LOD0/TEXCOORD_0",
      "type": "VEC2"
    },
    {
      "bufferView": 0,
      "byteOffset": 32,
      "componentType": 5126,
      "count": 432,
      "name": "SM_Wheat_01a1_LOD0/TEXCOORD_1",
      "type": "VEC2"
    },
    {
      "bufferView": 0,
      "byteOffset": 40,
      "componentType": 5126,
      "count": 432,
      "name": "SM_Wheat_01a1_LOD0/COLOR_0",
      "type": "VEC4"
    },
    {
      "bufferView": 1,
      "componentType": 5123,
      "count": 1512,
      "name": "SM_Wheat_01a1_LOD0/INDICES",
      "type": "SCALAR"
    },
    {
      "bufferView": 2,
      "componentType": 5126,
      "count": 248,
      "max": [
        0.3250243067741394,
        0.32884156703948975,
        0.3117408752441406
      ],
      "min": [
        -0.35407283902168274,
        -0.3150857985019684,
        -0.1019149050116539
      ],
      "name": "SM_Wheat_01a1_LOD1/POSITION",
      "type": "VEC3"
    },
    {
      "bufferView": 2,
      "byteOffset": 12,
      "componentType": 5126,
      "count": 248,
      "name": "SM_Wheat_01a1_LOD1/NORMAL",
      "type": "VEC3"
    },
    {
      "bufferView": 2,
      "byteOffset": 24,
      "componentType": 5126,
      "count": 248,
      "name": "SM_Wheat_01a1_LOD1/TEXCOORD_0",
      "type": "VEC2"
    },
    {
      "bufferView": 2,
      "byteOffset": 32,
      "componentType": 5126,
      "count": 248,
      "name": "SM_Wheat_01a1_LOD1/TEXCOORD_1",
      "type": "VEC2"
    },
    {
      "bufferView": 2,
      "byteOffset": 40,
      "componentType": 5126,
      "count": 248,
      "name": "SM_Wheat_01a1_LOD1/COLOR_0",
      "type": "VEC4"
    },
    {
      "bufferView": 3,
      "componentType": 5123,
      "count": 753,
      "name": "SM_Wheat_01a1_LOD1/INDICES",
      "type": "SCALAR"
    },
    {
      "bufferView": 4,
      "componentType": 5126,
      "count": 146,
      "max": [
        0.3250243067741394,
        0.33129051327705383,
        0.3160361051559448
      ],
      "min": [
        -0.3071393072605133,
        -0.3195994198322296,
        -0.10233302414417267
      ],
      "name": "SM_Wheat_01a1_LOD2/POSITION",
      "type": "VEC3"
    },
    {
      "bufferView": 4,
      "byteOffset": 12,
      "componentType": 5126,
      "count": 146,
      "name": "SM_Wheat_01a1_LOD2/NORMAL",
      "type": "VEC3"
    },
    {
      "bufferView": 4,
      "byteOffset": 24,
      "componentType": 5126,
      "count": 146,
      "name": "SM_Wheat_01a1_LOD2/TEXCOORD_0",
      "type": "VEC2"
    },
    {
      "bufferView": 4,
      "byteOffset": 32,
      "componentType": 5126,
      "count": 146,
      "name": "SM_Wheat_01a1_LOD2/TEXCOORD_1",
      "type": "VEC2"
    },
    {
      "bufferView": 4,
      "byteOffset": 40,
      "componentType": 5126,
      "count": 146,
      "name": "SM_Wheat_01a1_LOD2/COLOR_0",
      "type": "VEC4"
    },
    {
      "bufferView": 5,
      "componentType": 5123,
      "count": 378,
      "name": "SM_Wheat_01a1_LOD2/INDICES",
      "type": "SCALAR"
    },
    {
      "bufferView": 6,
      "componentType": 5126,
      "count": 95,
      "max": [
        0.29701125621795654,
        0.33129051327705383,
        0.3160361051559448
      ],
      "min": [
        -0.3071393072605133,
        -0.3195994198322296,
        -0.11372511088848114
      ],
      "name": "SM_Wheat_01a1_LOD3/POSITION",
      "type": "VEC3"
    },
    {
      "bufferView": 6,
      "byteOffset": 12,
      "componentType": 5126,
      "count": 95,
      "name": "SM_Wheat_01a1_LOD3/NORMAL",
      "type": "VEC3"
    },
    {
      "bufferView": 6,
      "byteOffset": 24,
      "componentType": 5126,
      "count": 95,
      "name": "SM_Wheat_01a1_LOD3/TEXCOORD_0",
      "type": "VEC2"
    },
    {
      "bufferView": 6,
      "byteOffset": 32,
      "componentType": 5126,
      "count": 95,
      "name": "SM_Wheat_01a1_LOD3/TEXCOORD_1",
      "type": "VEC2"
    },
    {
      "bufferView": 6,
      "byteOffset": 40,
      "componentType": 5126,
      "count": 95,
      "name": "SM_Wheat_01a1_LOD3/COLOR_0",
      "type": "VEC4"
    },
    {
      "bufferView": 7,
      "componentType": 5123,
      "count": 186,
      "name": "SM_Wheat_01a1_LOD3/INDICES",
      "type": "SCALAR"
    }
  ],
  "asset": {
    "copyright": "Copyright (c) 2018-2020 Chukong Technologies Inc.",
    "generator": "FBX-glTF-conv",
    "version": "2.0"
  },
  "bufferViews": [
    {
      "buffer": 0,
      "byteLength": 24192,
      "byteStride": 56,
      "name": "SM_Wheat_01a1_LOD0",
      "target": 34962
    },
    {
      "buffer": 0,
      "byteLength": 3024,
      "byteOffset": 24192,
      "target": 34963
    },
    {
      "buffer": 0,
      "byteLength": 13888,
      "byteOffset": 27216,
      "byteStride": 56,
      "name": "SM_Wheat_01a1_LOD1",
      "target": 34962
    },
    {
      "buffer": 0,
      "byteLength": 1506,
      "byteOffset": 41104,
      "target": 34963
    },
    {
      "buffer": 0,
      "byteLength": 8176,
      "byteOffset": 42610,
      "byteStride": 56,
      "name": "SM_Wheat_01a1_LOD2",
      "target": 34962
    },
    {
      "buffer": 0,
      "byteLength": 756,
      "byteOffset": 50786,
      "target": 34963
    },
    {
      "buffer": 0,
      "byteLength": 5320,
      "byteOffset": 51542,
      "byteStride": 56,
      "name": "SM_Wheat_01a1_LOD3",
      "target": 34962
    },
    {
      "buffer": 0,
      "byteLength": 372,
      "byteOffset": 56862,
      "target": 34963
    }
  ],
  "buffers": [
    {
      "byteLength": 57234,
      "uri": "out.bin"
    }
  ],
  "extras": {
    "FBX-glTF-conv": {
      "animationFrameRate": 30.0,
      "fbxFileHeaderInfo": {
        "creationTimeStamp": {
          "day": 8,
          "hour": 22,
          "millisecond": 6,
          "minute": 2,
          "month": 6,
          "second": 30,
          "year": 2025
        },
        "creator": "FBX SDK/FBX Plugins version 2019.2",
        "sceneInfo": {
          "author": "",
          "comment": "",
          "keywords": "",
          "original": {
            "applicationName": "3ds Max",
            "applicationVendor": "Autodesk",
            "applicationVersion": "2020",
            "fileName": "C:\\Users\\北远\\Desktop\\DC 使用资源优化压缩\\nongtian_ganhanZW.FBX"
          },
          "revision": "",
          "subject": "",
          "title": "",
          "url": "D:\\Cocos\\PlayAble\\SSD_PullWire\\assets\\Res\\Fbx\\Build\\nongtian\\nongtian_ganhanZW.FBX"
        }
      }
    }
  },
  "materials": [
    {
      "extras": {
        "FBX-glTF-conv": {
          "raw": {
            "properties": {
              "ambient": {
                "value": [
                  0.0,
                  0.0,
                  0.0
                ]
              },
              "ambientFactor": {
                "value": 0.0
              },
              "bump": {
                "value": [
                  0.0,
                  0.0,
                  0.0
                ]
              },
              "bumpFactor": {
                "value": 1.0
              },
              "diffuse": {
                "value": [
                  0.800000011920929,
                  0.800000011920929,
                  0.800000011920929
                ]
              },
              "diffuseFactor": {
                "value": 1.0
              },
              "displacementColor": {
                "value": [
                  0.0,
                  0.0,
                  0.0
                ]
              },
              "displacementFactor": {
                "value": 1.0
              },
              "emissive": {
                "value": [
                  0.0,
                  0.0,
                  0.0
                ]
              },
              "emissiveFactor": {
                "value": 0.0
              },
              "normalMap": {
                "value": [
                  0.0,
                  0.0,
                  0.0
                ]
              },
              "reflection": {
                "value": [
                  0.0,
                  0.0,
                  0.0
                ]
              },
              "reflectionFactor": {
                "value": 1.0
              },
              "shadingModel": "phong",
              "shininess": {
                "value": 1.0717734098434448
              },
              "specular": {
                "value": [
                  0.0,
                  0.0,
                  0.0
                ]
              },
              "specularFactor": {
                "value": 0.0
              },
              "transparencyFactor": {
                "value": 0.0
              },
              "transparentColor": {
                "value": [
                  1.0,
                  1.0,
                  1.0
                ]
              },
              "vectorDisplacementColor": {
                "value": [
                  0.0,
                  0.0,
                  0.0
                ]
              },
              "vectorDisplacementFactor": {
                "value": 1.0
              }
            },
            "type": "phong"
          }
        }
      },
      "name": "MI_WheatLeaves_01"
    }
  ],
  "meshes": [
    {
      "name": "SM_Wheat_01a1_LOD0",
      "primitives": [
        {
          "attributes": {
            "COLOR_0": 4,
            "NORMAL": 1,
            "POSITION": 0,
            "TEXCOORD_0": 2,
            "TEXCOORD_1": 3
          },
          "indices": 5,
          "material": 0
        }
      ]
    },
    {
      "name": "SM_Wheat_01a1_LOD1",
      "primitives": [
        {
          "attributes": {
            "COLOR_0": 10,
            "NORMAL": 7,
            "POSITION": 6,
            "TEXCOORD_0": 8,
            "TEXCOORD_1": 9
          },
          "indices": 11,
          "material": 0
        }
      ]
    },
    {
      "name": "SM_Wheat_01a1_LOD2",
      "primitives": [
        {
          "attributes": {
            "COLOR_0": 16,
            "NORMAL": 13,
            "POSITION": 12,
            "TEXCOORD_0": 14,
            "TEXCOORD_1": 15
          },
          "indices": 17,
          "material": 0
        }
      ]
    },
    {
      "name": "SM_Wheat_01a1_LOD3",
      "primitives": [
        {
          "attributes": {
            "COLOR_0": 22,
            "NORMAL": 19,
            "POSITION": 18,
            "TEXCOORD_0": 20,
            "TEXCOORD_1": 21
          },
          "indices": 23,
          "material": 0
        }
      ]
    }
  ],
  "nodes": [
    {
      "children": [
        1,
        2,
        3,
        4
      ],
      "name": "SM_Wheat_01a1",
      "rotation": [
        -0.7071067690849304,
        -0.0,
        0.0,
        0.7071067690849304
      ],
      "translation": [
        -0.014524268917739391,
        0.10115548968315125,
        -0.005845546722412109
      ]
    },
    {
      "mesh": 0,
      "name": "SM_Wheat_01a1_LOD0",
      "translation": [
        0.014524268917739391,
        -0.005845546722412109,
        -0.10115548968315125
      ]
    },
    {
      "mesh": 1,
      "name": "SM_Wheat_01a1_LOD1",
      "translation": [
        0.014524268917739391,
        -0.005845546722412109,
        -0.10115548968315125
      ]
    },
    {
      "mesh": 2,
      "name": "SM_Wheat_01a1_LOD2",
      "translation": [
        0.014524268917739391,
        -0.005845546722412109,
        -0.10115548968315125
      ]
    },
    {
      "mesh": 3,
      "name": "SM_Wheat_01a1_LOD3",
      "translation": [
        0.014524268917739391,
        -0.005845546722412109,
        -0.10115548968315125
      ]
    }
  ],
  "scenes": [
    {
      "nodes": [
        0
      ]
    }
  ]
}