{
  "accessors": [
    {
      "bufferView": 0,
      "componentType": 5126,
      "count": 768,
      "max": [
        0.21210724115371704,
        1.6672439575195313,
        2.7231621742248535
      ],
      "min": [
        -0.5231204032897949,
        -1.7528361082077026,
        -1.1205673217773438e-05
      ],
      "name": "新_一级围墙5/POSITION",
      "type": "VEC3"
    },
    {
      "bufferView": 0,
      "byteOffset": 12,
      "componentType": 5126,
      "count": 768,
      "name": "新_一级围墙5/NORMAL",
      "type": "VEC3"
    },
    {
      "bufferView": 0,
      "byteOffset": 24,
      "componentType": 5126,
      "count": 768,
      "name": "新_一级围墙5/TEXCOORD_0",
      "type": "VEC2"
    },
    {
      "bufferView": 0,
      "byteOffset": 32,
      "componentType": 5126,
      "count": 768,
      "name": "新_一级围墙5/TEXCOORD_1",
      "type": "VEC2"
    },
    {
      "bufferView": 0,
      "byteOffset": 40,
      "componentType": 5126,
      "count": 768,
      "name": "新_一级围墙5/TEXCOORD_2",
      "type": "VEC2"
    },
    {
      "bufferView": 1,
      "componentType": 5123,
      "count": 1752,
      "name": "新_一级围墙5/INDICES",
      "type": "SCALAR"
    }
  ],
  "asset": {
    "copyright": "Copyright (c) 2018-2020 Chukong Technologies Inc.",
    "generator": "FBX-glTF-conv",
    "version": "2.0"
  },
  "bufferViews": [
    {
      "buffer": 0,
      "byteLength": 36864,
      "byteStride": 48,
      "name": "新_一级围墙5",
      "target": 34962
    },
    {
      "buffer": 0,
      "byteLength": 3504,
      "byteOffset": 36864,
      "target": 34963
    }
  ],
  "buffers": [
    {
      "byteLength": 40368,
      "uri": "out.bin"
    }
  ],
  "extras": {
    "FBX-glTF-conv": {
      "animationFrameRate": 30.0,
      "fbxFileHeaderInfo": {
        "creationTimeStamp": {
          "day": 19,
          "hour": 15,
          "millisecond": 945,
          "minute": 29,
          "month": 9,
          "second": 35,
          "year": 2025
        },
        "creator": "FBX SDK/FBX Plugins version 2020.3.9",
        "sceneInfo": {
          "author": "",
          "comment": "",
          "keywords": "",
          "original": {
            "applicationName": "3ds Max",
            "applicationVendor": "Autodesk",
            "applicationVersion": "2026",
            "fileName": "E:\\pa_lyk\\PlayAble\\SSD_LoggingSurvival\\assets\\Res\\Fbx\\TongYong\\WeiLan.FBX"
          },
          "revision": "",
          "subject": "",
          "title": "",
          "url": "D:\\Cocos\\PlayAble\\SSD_0623_JHF_FaMuShengCun\\assets\\Res\\Fbx\\TongYong\\WeiLan.FBX"
        }
      }
    }
  },
  "materials": [
    {
      "extras": {
        "FBX-glTF-conv": {
          "raw": {
            "properties": {
              "3dsMax": {
                "value": {
                  "ClassIDa": {
                    "value": -804315648
                  },
                  "ClassIDb": {
                    "value": -1099438848
                  },
                  "SuperClassID": {
                    "value": 3072
                  },
                  "main": {
                    "value": {
                      "baseColor": {
                        "value": [
                          1.0,
                          1.0,
                          1.0,
                          1.0
                        ]
                      },
                      "bump_map_amt": {
                        "value": 1.0
                      },
                      "displacement_amt": {
                        "value": 1.0
                      },
                      "emit_color": {
                        "value": [
                          0.0,
                          0.0,
                          0.0,
                          1.0
                        ]
                      },
                      "metalness": {
                        "value": 0.0
                      },
                      "roughness": {
                        "value": 0.0
                      },
                      "useGlossiness": {
                        "value": 2
                      }
                    }
                  },
                  "settings": {
                    "value": {
                      "ao_affects_diffuse": {
                        "value": true
                      },
                      "ao_affects_reflection": {
                        "value": true
                      },
                      "normal_flip_green": {
                        "value": false
                      },
                      "normal_flip_red": {
                        "value": false
                      }
                    }
                  }
                }
              },
              "AmbientColor": {
                "value": [
                  1.0,
                  1.0,
                  1.0
                ]
              },
              "DiffuseColor": {
                "value": [
                  1.0,
                  1.0,
                  1.0
                ]
              },
              "EmissiveColor": {
                "value": [
                  0.0,
                  0.0,
                  0.0
                ]
              },
              "EmissiveFactor": {
                "value": 0.0
              },
              "MultiLayer": {
                "value": false
              },
              "ShadingModel": {
                "value": "unknown"
              },
              "ShininessExponent": {
                "value": 1024.0
              },
              "SpecularColor": {
                "value": [
                  1.0,
                  1.0,
                  1.0
                ]
              },
              "SpecularFactor": {
                "value": 2.0
              },
              "TransparencyFactor": {
                "value": 0.0
              }
            }
          }
        }
      },
      "name": "M_一级围墙_Inst"
    }
  ],
  "meshes": [
    {
      "name": "新_一级围墙5",
      "primitives": [
        {
          "attributes": {
            "NORMAL": 1,
            "POSITION": 0,
            "TEXCOORD_0": 2,
            "TEXCOORD_1": 3,
            "TEXCOORD_2": 4
          },
          "indices": 5,
          "material": 0
        }
      ]
    }
  ],
  "nodes": [
    {
      "mesh": 0,
      "name": "新_一级围墙5",
      "rotation": [
        -0.7071067690849304,
        -0.0,
        0.0,
        0.7071067690849304
      ]
    }
  ],
  "scenes": [
    {
      "nodes": [
        0
      ]
    }
  ]
}