{
  "accessors": [
    {
      "bufferView": 0,
      "componentType": 5126,
      "count": 391,
      "max": [
        1.8832297325134277,
        1.7012786865234375,
        2.2350800037384033
      ],
      "min": [
        -1.7077404260635376,
        -1.7894906997680664,
        0.05487922579050064
      ],
      "name": "fbx_city_kt_shanshi_01/POSITION",
      "type": "VEC3"
    },
    {
      "bufferView": 0,
      "byteOffset": 12,
      "componentType": 5126,
      "count": 391,
      "name": "fbx_city_kt_shanshi_01/NORMAL",
      "type": "VEC3"
    },
    {
      "bufferView": 0,
      "byteOffset": 24,
      "componentType": 5126,
      "count": 391,
      "name": "fbx_city_kt_shanshi_01/TEXCOORD_0",
      "type": "VEC2"
    },
    {
      "bufferView": 0,
      "byteOffset": 32,
      "componentType": 5126,
      "count": 391,
      "name": "fbx_city_kt_shanshi_01/TEXCOORD_1",
      "type": "VEC2"
    },
    {
      "bufferView": 0,
      "byteOffset": 40,
      "componentType": 5126,
      "count": 391,
      "name": "fbx_city_kt_shanshi_01/TEXCOORD_2",
      "type": "VEC2"
    },
    {
      "bufferView": 1,
      "componentType": 5123,
      "count": 915,
      "name": "fbx_city_kt_shanshi_01/INDICES",
      "type": "SCALAR"
    }
  ],
  "asset": {
    "copyright": "Copyright (c) 2018-2020 Chukong Technologies Inc.",
    "generator": "FBX-glTF-conv",
    "version": "2.0"
  },
  "bufferViews": [
    {
      "buffer": 0,
      "byteLength": 18768,
      "byteStride": 48,
      "name": "fbx_city_kt_shanshi_01",
      "target": 34962
    },
    {
      "buffer": 0,
      "byteLength": 1830,
      "byteOffset": 18768,
      "target": 34963
    }
  ],
  "buffers": [
    {
      "byteLength": 20598,
      "uri": "out.bin"
    }
  ],
  "extras": {
    "FBX-glTF-conv": {
      "animationFrameRate": 30.0,
      "fbxFileHeaderInfo": {
        "creationTimeStamp": {
          "day": 17,
          "hour": 17,
          "millisecond": 205,
          "minute": 41,
          "month": 7,
          "second": 58,
          "year": 2025
        },
        "creator": "FBX SDK/FBX Plugins version 2020.2",
        "sceneInfo": {
          "author": "",
          "comment": "",
          "keywords": "",
          "original": {
            "applicationName": "Unreal Engine",
            "applicationVendor": "Epic Games",
            "applicationVersion": "5.3.2-29314046+++UE5+Release-5.3",
            "fileName": ""
          },
          "revision": "",
          "subject": "Export FBX meshes from Unreal",
          "title": "Unreal FBX Exporter",
          "url": "D:\\Cocos\\PlayAble\\SSD_UnlockPlot\\assets\\Res\\Fbx\\Build\\shanshi_01.FBX"
        }
      }
    }
  },
  "materials": [
    {
      "extras": {
        "FBX-glTF-conv": {
          "raw": {
            "properties": {
              "ambient": {
                "value": [
                  0.0,
                  0.0,
                  0.0
                ]
              },
              "ambientFactor": {
                "value": 1.0
              },
              "bump": {
                "value": [
                  0.0,
                  0.0,
                  0.0
                ]
              },
              "bumpFactor": {
                "value": 1.0
              },
              "diffuse": {
                "value": [
                  0.2158605009317398,
                  0.2158605009317398,
                  0.2158605009317398
                ]
              },
              "diffuseFactor": {
                "value": 1.0
              },
              "displacementColor": {
                "value": [
                  0.0,
                  0.0,
                  0.0
                ]
              },
              "displacementFactor": {
                "value": 1.0
              },
              "emissive": {
                "value": [
                  0.0,
                  0.0,
                  0.0
                ]
              },
              "emissiveFactor": {
                "value": 1.0
              },
              "normalMap": {
                "value": [
                  0.0,
                  0.0,
                  0.0
                ]
              },
              "reflection": {
                "value": [
                  0.0,
                  0.0,
                  0.0
                ]
              },
              "reflectionFactor": {
                "value": 1.0
              },
              "shadingModel": "Phong",
              "shininess": {
                "value": 20.0
              },
              "specular": {
                "value": [
                  0.2,
                  0.2,
                  0.2
                ]
              },
              "specularFactor": {
                "value": 1.0
              },
              "transparencyFactor": {
                "value": 1.0
              },
              "transparentColor": {
                "value": [
                  0.0,
                  0.0,
                  0.0
                ]
              },
              "vectorDisplacementColor": {
                "value": [
                  0.0,
                  0.0,
                  0.0
                ]
              },
              "vectorDisplacementFactor": {
                "value": 1.0
              }
            },
            "type": "phong"
          }
        }
      },
      "name": "MI_YanShi1"
    }
  ],
  "meshes": [
    {
      "name": "fbx_city_kt_shanshi_01",
      "primitives": [
        {
          "attributes": {
            "NORMAL": 1,
            "POSITION": 0,
            "TEXCOORD_0": 2,
            "TEXCOORD_1": 3,
            "TEXCOORD_2": 4
          },
          "indices": 5,
          "material": 0
        }
      ]
    }
  ],
  "nodes": [
    {
      "mesh": 0,
      "name": "fbx_city_kt_shanshi_01",
      "rotation": [
        -0.7071067690849304,
        -0.0,
        0.0,
        0.7071067690849304
      ]
    }
  ],
  "scenes": [
    {
      "nodes": [
        0
      ]
    }
  ]
}