{
  "accessors": [
    {
      "bufferView": 0,
      "componentType": 5126,
      "count": 38,
      "max": [
        0.5,
        0.49240389466285706,
        1.0
      ],
      "min": [
        -0.5,
        -0.49240389466285706,
        0.0
      ],
      "name": "Cylinder001/POSITION",
      "type": "VEC3"
    },
    {
      "bufferView": 0,
      "byteOffset": 12,
      "componentType": 5126,
      "count": 38,
      "name": "Cylinder001/NORMAL",
      "type": "VEC3"
    },
    {
      "bufferView": 0,
      "byteOffset": 24,
      "componentType": 5126,
      "count": 38,
      "name": "Cylinder001/TEXCOORD_0",
      "type": "VEC2"
    },
    {
      "bufferView": 1,
      "componentType": 5123,
      "count": 108,
      "name": "Cylinder001/INDICES",
      "type": "SCALAR"
    }
  ],
  "asset": {
    "copyright": "Copyright (c) 2018-2020 Chukong Technologies Inc.",
    "generator": "FBX-glTF-conv",
    "version": "2.0"
  },
  "bufferViews": [
    {
      "buffer": 0,
      "byteLength": 1216,
      "byteStride": 32,
      "name": "Cylinder001",
      "target": 34962
    },
    {
      "buffer": 0,
      "byteLength": 216,
      "byteOffset": 1216,
      "target": 34963
    }
  ],
  "buffers": [
    {
      "byteLength": 1432,
      "uri": "out.bin"
    }
  ],
  "extras": {
    "FBX-glTF-conv": {
      "animationFrameRate": 30.0,
      "fbxFileHeaderInfo": {
        "creationTimeStamp": {
          "day": 12,
          "hour": 11,
          "millisecond": 440,
          "minute": 3,
          "month": 9,
          "second": 28,
          "year": 2025
        },
        "creator": "FBX SDK/FBX Plugins version 2019.2",
        "sceneInfo": {
          "author": "",
          "comment": "",
          "keywords": "",
          "original": {
            "applicationName": "3ds Max",
            "applicationVendor": "Autodesk",
            "applicationVersion": "2020",
            "fileName": "D:\\LK\\PlayAble\\L_0725_HHL_monijingying\\assets\\resources\\Prefab\\TX\\TX_yuanhzu.fbx"
          },
          "revision": "",
          "subject": "",
          "title": "",
          "url": "D:\\Cocos\\PlayAble\\SSD_0623_JHF_FaMuShengCun\\assets\\Res\\TX\\TX_shengji\\TX_yuanhzu.fbx"
        }
      }
    }
  },
  "meshes": [
    {
      "name": "Cylinder001",
      "primitives": [
        {
          "attributes": {
            "NORMAL": 1,
            "POSITION": 0,
            "TEXCOORD_0": 2
          },
          "indices": 3
        }
      ]
    }
  ],
  "nodes": [
    {
      "mesh": 0,
      "name": "Cylinder001",
      "rotation": [
        -0.7071067690849304,
        -0.0,
        0.0,
        0.7071067690849304
      ]
    }
  ],
  "scenes": [
    {
      "nodes": [
        0
      ]
    }
  ]
}