{
  "accessors": [
    {
      "bufferView": 0,
      "componentType": 5126,
      "count": 2373,
      "max": [
        18.468469619750977,
        17.597639083862305,
        24.870407104492188
      ],
      "min": [
        -5.400360107421875,
        -0.006951619870960712,
        -9.11181926727295
      ],
      "name": "carpentersshop_b_01_LOD0/POSITION",
      "type": "VEC3"
    },
    {
      "bufferView": 0,
      "byteOffset": 12,
      "componentType": 5126,
      "count": 2373,
      "name": "carpentersshop_b_01_LOD0/NORMAL",
      "type": "VEC3"
    },
    {
      "bufferView": 0,
      "byteOffset": 24,
      "componentType": 5126,
      "count": 2373,
      "name": "carpentersshop_b_01_LOD0/TEXCOORD_0",
      "type": "VEC2"
    },
    {
      "bufferView": 0,
      "byteOffset": 32,
      "componentType": 5123,
      "count": 2373,
      "name": "carpentersshop_b_01_LOD0/JOINTS_0",
      "type": "VEC4"
    },
    {
      "bufferView": 0,
      "byteOffset": 40,
      "componentType": 5126,
      "count": 2373,
      "name": "carpentersshop_b_01_LOD0/WEIGHTS_0",
      "type": "VEC4"
    },
    {
      "bufferView": 1,
      "componentType": 5123,
      "count": 8346,
      "name": "carpentersshop_b_01_LOD0/INDICES",
      "type": "SCALAR"
    },
    {
      "bufferView": 2,
      "componentType": 5126,
      "count": 2,
      "name": "/InverseBindMatrices",
      "type": "MAT4"
    },
    {
      "bufferView": 3,
      "componentType": 5126,
      "count": 186,
      "max": [
        12.096900939941406,
        1.4668514728546143,
        -3.869542121887207
      ],
      "min": [
        2.8006200790405273,
        -0.0069510601460933685,
        -10.469145774841309
      ],
      "name": "对象001/POSITION",
      "type": "VEC3"
    },
    {
      "bufferView": 3,
      "byteOffset": 12,
      "componentType": 5126,
      "count": 186,
      "name": "对象001/NORMAL",
      "type": "VEC3"
    },
    {
      "bufferView": 3,
      "byteOffset": 24,
      "componentType": 5126,
      "count": 186,
      "name": "对象001/TEXCOORD_0",
      "type": "VEC2"
    },
    {
      "bufferView": 4,
      "componentType": 5123,
      "count": 306,
      "name": "对象001/INDICES",
      "type": "SCALAR"
    },
    {
      "bufferView": 5,
      "componentType": 5126,
      "count": 1,
      "name": "Bone001/translation/Output",
      "type": "VEC3"
    },
    {
      "bufferView": 6,
      "componentType": 5126,
      "count": 1,
      "max": [
        2.0
      ],
      "min": [
        2.0
      ],
      "name": "Bone001/translation/Input",
      "type": "SCALAR"
    },
    {
      "bufferView": 7,
      "componentType": 5126,
      "count": 1,
      "name": "Bone001/rotation/Output",
      "type": "VEC4"
    },
    {
      "bufferView": 8,
      "componentType": 5126,
      "count": 1,
      "max": [
        2.0
      ],
      "min": [
        2.0
      ],
      "name": "Bone001/rotation/Input",
      "type": "SCALAR"
    },
    {
      "bufferView": 9,
      "componentType": 5126,
      "count": 1,
      "name": "Bone001/scale/Output",
      "type": "VEC3"
    },
    {
      "bufferView": 10,
      "componentType": 5126,
      "count": 1,
      "max": [
        2.0
      ],
      "min": [
        2.0
      ],
      "name": "Bone001/scale/Input",
      "type": "SCALAR"
    },
    {
      "bufferView": 11,
      "componentType": 5126,
      "count": 1,
      "name": "Bone003/translation/Output",
      "type": "VEC3"
    },
    {
      "bufferView": 12,
      "componentType": 5126,
      "count": 1,
      "max": [
        2.0
      ],
      "min": [
        2.0
      ],
      "name": "Bone003/translation/Input",
      "type": "SCALAR"
    },
    {
      "bufferView": 13,
      "componentType": 5126,
      "count": 35,
      "name": "Bone003/rotation/Output",
      "type": "VEC4"
    },
    {
      "bufferView": 14,
      "componentType": 5126,
      "count": 35,
      "max": [
        1.3333333730697632
      ],
      "min": [
        0.0
      ],
      "name": "Bone003/rotation/Input",
      "type": "SCALAR"
    },
    {
      "bufferView": 15,
      "componentType": 5126,
      "count": 1,
      "name": "Bone003/scale/Output",
      "type": "VEC3"
    },
    {
      "bufferView": 16,
      "componentType": 5126,
      "count": 1,
      "max": [
        2.0
      ],
      "min": [
        2.0
      ],
      "name": "Bone003/scale/Input",
      "type": "SCALAR"
    }
  ],
  "animations": [
    {
      "channels": [
        {
          "sampler": 0,
          "target": {
            "node": 1,
            "path": "translation"
          }
        },
        {
          "sampler": 1,
          "target": {
            "node": 1,
            "path": "rotation"
          }
        },
        {
          "sampler": 2,
          "target": {
            "node": 1,
            "path": "scale"
          }
        },
        {
          "sampler": 3,
          "target": {
            "node": 2,
            "path": "translation"
          }
        },
        {
          "sampler": 4,
          "target": {
            "node": 2,
            "path": "rotation"
          }
        },
        {
          "sampler": 5,
          "target": {
            "node": 2,
            "path": "scale"
          }
        }
      ],
      "name": "Take 001",
      "samplers": [
        {
          "input": 12,
          "output": 11
        },
        {
          "input": 14,
          "output": 13
        },
        {
          "input": 16,
          "output": 15
        },
        {
          "input": 18,
          "output": 17
        },
        {
          "input": 20,
          "output": 19
        },
        {
          "input": 22,
          "output": 21
        }
      ]
    }
  ],
  "asset": {
    "copyright": "Copyright (c) 2018-2020 Chukong Technologies Inc.",
    "generator": "FBX-glTF-conv",
    "version": "2.0"
  },
  "bufferViews": [
    {
      "buffer": 0,
      "byteLength": 132888,
      "byteStride": 56,
      "name": "carpentersshop_b_01_LOD0",
      "target": 34962
    },
    {
      "buffer": 0,
      "byteLength": 16692,
      "byteOffset": 132888,
      "target": 34963
    },
    {
      "buffer": 0,
      "byteLength": 128,
      "byteOffset": 149580
    },
    {
      "buffer": 0,
      "byteLength": 5952,
      "byteOffset": 149708,
      "byteStride": 32,
      "name": "对象001",
      "target": 34962
    },
    {
      "buffer": 0,
      "byteLength": 612,
      "byteOffset": 155660,
      "target": 34963
    },
    {
      "buffer": 0,
      "byteLength": 12,
      "byteOffset": 156272
    },
    {
      "buffer": 0,
      "byteLength": 4,
      "byteOffset": 156284
    },
    {
      "buffer": 0,
      "byteLength": 16,
      "byteOffset": 156288
    },
    {
      "buffer": 0,
      "byteLength": 4,
      "byteOffset": 156304
    },
    {
      "buffer": 0,
      "byteLength": 12,
      "byteOffset": 156308
    },
    {
      "buffer": 0,
      "byteLength": 4,
      "byteOffset": 156320
    },
    {
      "buffer": 0,
      "byteLength": 12,
      "byteOffset": 156324
    },
    {
      "buffer": 0,
      "byteLength": 4,
      "byteOffset": 156336
    },
    {
      "buffer": 0,
      "byteLength": 560,
      "byteOffset": 156340
    },
    {
      "buffer": 0,
      "byteLength": 140,
      "byteOffset": 156900
    },
    {
      "buffer": 0,
      "byteLength": 12,
      "byteOffset": 157040
    },
    {
      "buffer": 0,
      "byteLength": 4,
      "byteOffset": 157052
    }
  ],
  "buffers": [
    {
      "byteLength": 157056,
      "uri": "out.bin"
    }
  ],
  "extras": {
    "FBX-glTF-conv": {
      "animationFrameRate": 30.0,
      "fbxFileHeaderInfo": {
        "creationTimeStamp": {
          "day": 10,
          "hour": 0,
          "millisecond": 62,
          "minute": 32,
          "month": 6,
          "second": 12,
          "year": 2025
        },
        "creator": "FBX SDK/FBX Plugins version 2019.2",
        "sceneInfo": {
          "author": "",
          "comment": "",
          "keywords": "",
          "original": {
            "applicationName": "3ds Max",
            "applicationVendor": "Autodesk",
            "applicationVersion": "2020",
            "fileName": "C:\\Users\\北远\\Desktop\\L资源优化06.09\\t_carpentersshop_b_01.fbx"
          },
          "revision": "",
          "subject": "",
          "title": "",
          "url": "D:\\Cocos\\PlayAble\\L_DefendTheCup\\assets\\Res\\Fbx\\Map\\t_carpentersshop\\t_carpentersshop_b_01.fbx"
        }
      }
    }
  },
  "materials": [
    {
      "extras": {
        "FBX-glTF-conv": {
          "raw": {
            "properties": {
              "ambient": {
                "value": [
                  0.20000000298023224,
                  0.20000000298023224,
                  0.20000000298023224
                ]
              },
              "ambientFactor": {
                "value": 0.0
              },
              "bump": {
                "value": [
                  0.0,
                  0.0,
                  0.0
                ]
              },
              "bumpFactor": {
                "value": 1.0
              },
              "diffuse": {
                "value": [
                  0.800000011920929,
                  0.800000011920929,
                  0.800000011920929
                ]
              },
              "diffuseFactor": {
                "value": 1.0
              },
              "displacementColor": {
                "value": [
                  0.0,
                  0.0,
                  0.0
                ]
              },
              "displacementFactor": {
                "value": 1.0
              },
              "emissive": {
                "value": [
                  0.0,
                  0.0,
                  0.0
                ]
              },
              "emissiveFactor": {
                "value": 0.0
              },
              "normalMap": {
                "value": [
                  0.0,
                  0.0,
                  0.0
                ]
              },
              "reflection": {
                "value": [
                  0.0,
                  0.0,
                  0.0
                ]
              },
              "reflectionFactor": {
                "value": 1.0
              },
              "shadingModel": "phong",
              "shininess": {
                "value": 1.0717734098434448
              },
              "specular": {
                "value": [
                  1.0,
                  1.0,
                  1.0
                ]
              },
              "specularFactor": {
                "value": 0.5
              },
              "transparencyFactor": {
                "value": 0.0
              },
              "transparentColor": {
                "value": [
                  1.0,
                  1.0,
                  1.0
                ]
              },
              "vectorDisplacementColor": {
                "value": [
                  0.0,
                  0.0,
                  0.0
                ]
              },
              "vectorDisplacementFactor": {
                "value": 1.0
              }
            },
            "type": "phong"
          }
        }
      },
      "name": "m_carpentersshop_b_01"
    }
  ],
  "meshes": [
    {
      "name": "carpentersshop_b_01_LOD0",
      "primitives": [
        {
          "attributes": {
            "JOINTS_0": 3,
            "NORMAL": 1,
            "POSITION": 0,
            "TEXCOORD_0": 2,
            "WEIGHTS_0": 4
          },
          "indices": 5,
          "material": 0
        }
      ]
    },
    {
      "name": "对象001",
      "primitives": [
        {
          "attributes": {
            "NORMAL": 8,
            "POSITION": 7,
            "TEXCOORD_0": 9
          },
          "indices": 10,
          "material": 0
        }
      ]
    }
  ],
  "nodes": [
    {
      "mesh": 0,
      "name": "carpentersshop_b_01_LOD0",
      "skin": 0
    },
    {
      "children": [
        2
      ],
      "extras": {
        "FBX-glTF-conv": {
          "skeleton": {
            "skeletonType": "LimbNode"
          }
        }
      },
      "name": "Bone001",
      "rotation": [
        -0.7071064114570618,
        -0.0007057024631649256,
        0.7071064710617065,
        0.000705710903275758
      ],
      "translation": [
        8.265496253967285,
        1.9092507362365723,
        12.294604301452637
      ]
    },
    {
      "extras": {
        "FBX-glTF-conv": {
          "skeleton": {
            "skeletonType": "LimbNode"
          }
        }
      },
      "name": "Bone003",
      "rotation": [
        8.73339658369332e-08,
        -3.939426118648726e-09,
        -0.04506176710128784,
        0.9989842176437378
      ],
      "translation": [
        -0.21237915754318237,
        -2.7071382999420166,
        -6.103515488575795e-07
      ]
    },
    {
      "mesh": 1,
      "name": "对象001"
    }
  ],
  "scenes": [
    {
      "nodes": [
        0,
        1,
        3
      ]
    }
  ],
  "skins": [
    {
      "inverseBindMatrices": 6,
      "joints": [
        2,
        1
      ]
    }
  ]
}