{
  "accessors": [
    {
      "bufferView": 0,
      "componentType": 5126,
      "count": 1650,
      "max": [
        0.8458505868911743,
        1.249497652053833,
        1.9724135398864746
      ],
      "min": [
        -0.9588194489479065,
        -1.8183038234710693,
        -0.25358015298843384
      ],
      "name": "Bear_丧尸/POSITION",
      "type": "VEC3"
    },
    {
      "bufferView": 0,
      "byteOffset": 12,
      "componentType": 5126,
      "count": 1650,
      "name": "Bear_丧尸/NORMAL",
      "type": "VEC3"
    },
    {
      "bufferView": 0,
      "byteOffset": 24,
      "componentType": 5126,
      "count": 1650,
      "name": "Bear_丧尸/TEXCOORD_0",
      "type": "VEC2"
    },
    {
      "bufferView": 0,
      "byteOffset": 32,
      "componentType": 5126,
      "count": 1650,
      "name": "Bear_丧尸/COLOR_0",
      "type": "VEC4"
    },
    {
      "bufferView": 0,
      "byteOffset": 48,
      "componentType": 5123,
      "count": 1650,
      "name": "Bear_丧尸/JOINTS_0",
      "type": "VEC4"
    },
    {
      "bufferView": 0,
      "byteOffset": 56,
      "componentType": 5126,
      "count": 1650,
      "name": "Bear_丧尸/WEIGHTS_0",
      "type": "VEC4"
    },
    {
      "bufferView": 1,
      "componentType": 5123,
      "count": 5886,
      "name": "Bear_丧尸/INDICES",
      "type": "SCALAR"
    },
    {
      "bufferView": 2,
      "componentType": 5126,
      "count": 18,
      "name": "/InverseBindMatrices",
      "type": "MAT4"
    }
  ],
  "asset": {
    "copyright": "Copyright (c) 2018-2020 Chukong Technologies Inc.",
    "generator": "FBX-glTF-conv",
    "version": "2.0"
  },
  "bufferViews": [
    {
      "buffer": 0,
      "byteLength": 118800,
      "byteStride": 72,
      "name": "Bear_丧尸",
      "target": 34962
    },
    {
      "buffer": 0,
      "byteLength": 11772,
      "byteOffset": 118800,
      "target": 34963
    },
    {
      "buffer": 0,
      "byteLength": 1152,
      "byteOffset": 130572
    }
  ],
  "buffers": [
    {
      "byteLength": 131724,
      "uri": "out.bin"
    }
  ],
  "extras": {
    "FBX-glTF-conv": {
      "animationFrameRate": 30.0,
      "fbxFileHeaderInfo": {
        "creationTimeStamp": {
          "day": 8,
          "hour": 20,
          "millisecond": 447,
          "minute": 59,
          "month": 6,
          "second": 26,
          "year": 2025
        },
        "creator": "FBX SDK/FBX Plugins version 2019.2",
        "sceneInfo": {
          "author": "",
          "comment": "",
          "keywords": "",
          "original": {
            "applicationName": "3ds Max",
            "applicationVendor": "Autodesk",
            "applicationVersion": "2020",
            "fileName": "C:\\Users\\北远\\Desktop\\DC 使用资源优化压缩\\Bear.fbx"
          },
          "revision": "",
          "subject": "",
          "title": "",
          "url": "D:\\Cocos\\PlayAble\\SSD_PullWire\\assets\\Res\\Fbx\\animal\\Bear\\Bear.fbx"
        }
      }
    }
  },
  "images": [
    {
      "extras": {
        "FBX-glTF-conv": {
          "fileName": "F:\\WechatFile\\WeChat Files\\wxid_0anvoez9arj022\\FileStorage\\File\\2024-06\\丧尸熊\\Texture\\tex_Bear_D3.tga",
          "relativeFileName": "F:\\WechatFile\\WeChat Files\\wxid_0anvoez9arj022\\FileStorage\\File\\2024-06\\丧尸熊\\Texture\\tex_Bear_D3.tga"
        }
      },
      "name": "EnvSamplerTex",
      "uri": "data:image/png;base64,"
    }
  ],
  "materials": [
    {
      "extras": {
        "FBX-glTF-conv": {
          "raw": {
            "properties": {
              "ambient": {
                "value": [
                  0.0,
                  0.0,
                  0.0
                ]
              },
              "ambientFactor": {
                "value": 0.0
              },
              "bump": {
                "value": [
                  0.0,
                  0.0,
                  0.0
                ]
              },
              "bumpFactor": {
                "value": 1.0
              },
              "diffuse": {
                "texture": {
                  "index": 0
                },
                "value": [
                  0.800000011920929,
                  0.800000011920929,
                  0.800000011920929
                ]
              },
              "diffuseFactor": {
                "value": 1.0
              },
              "displacementColor": {
                "value": [
                  0.0,
                  0.0,
                  0.0
                ]
              },
              "displacementFactor": {
                "value": 1.0
              },
              "emissive": {
                "value": [
                  0.0,
                  0.0,
                  0.0
                ]
              },
              "emissiveFactor": {
                "value": 0.0
              },
              "normalMap": {
                "value": [
                  0.0,
                  0.0,
                  0.0
                ]
              },
              "reflection": {
                "value": [
                  0.0,
                  0.0,
                  0.0
                ]
              },
              "reflectionFactor": {
                "value": 1.0
              },
              "shadingModel": "phong",
              "shininess": {
                "value": 19.999998092651367
              },
              "specular": {
                "value": [
                  0.20000000298023224,
                  0.20000000298023224,
                  0.20000000298023224
                ]
              },
              "specularFactor": {
                "value": 1.0
              },
              "transparencyFactor": {
                "value": 0.0
              },
              "transparentColor": {
                "value": [
                  1.0,
                  1.0,
                  1.0
                ]
              },
              "vectorDisplacementColor": {
                "value": [
                  0.0,
                  0.0,
                  0.0
                ]
              },
              "vectorDisplacementFactor": {
                "value": 1.0
              }
            },
            "type": "phong"
          }
        }
      },
      "name": "M_熊"
    }
  ],
  "meshes": [
    {
      "name": "Bear_丧尸",
      "primitives": [
        {
          "attributes": {
            "COLOR_0": 3,
            "JOINTS_0": 4,
            "NORMAL": 1,
            "POSITION": 0,
            "TEXCOORD_0": 2,
            "WEIGHTS_0": 5
          },
          "indices": 6,
          "material": 0
        }
      ]
    }
  ],
  "nodes": [
    {
      "children": [
        1
      ],
      "name": "Bip001",
      "rotation": [
        0.05731888860464096,
        -0.009699893184006214,
        -0.7033843994140625,
        0.7084284424781799
      ],
      "translation": [
        -2.720325964489234e-09,
        0.8912110924720764,
        -0.6747983694076538
      ]
    },
    {
      "children": [
        2,
        32
      ],
      "name": "Bip001 Pelvis",
      "rotation": [
        -0.49999967217445374,
        -0.5000003576278687,
        -0.49999964237213135,
        0.5000003576278687
      ],
      "translation": [
        1.5258788721439487e-07,
        2.3841858265427618e-08,
        0.0
      ]
    },
    {
      "children": [
        3,
        20,
        26
      ],
      "name": "Bip001 Spine",
      "rotation": [
        -0.0003582169592846185,
        -0.025549529120326042,
        -0.013137954287230968,
        0.9995871782302856
      ],
      "translation": [
        0.39451825618743896,
        -0.005387039389461279,
        -0.02378707006573677
      ]
    },
    {
      "children": [
        4
      ],
      "name": "Bip001 Spine1",
      "rotation": [
        -0.0025413339026272297,
        -0.04345396161079407,
        -0.07193754613399506,
        0.996458888053894
      ],
      "translation": [
        0.4363214075565338,
        -0.0007914733723737299,
        -9.91821252682712e-07
      ]
    },
    {
      "children": [
        5,
        11,
        17
      ],
      "name": "Bip001 Neck",
      "rotation": [
        -0.0032669291831552982,
        -0.029929494485259056,
        0.00027758939540944993,
        0.9995466470718384
      ],
      "translation": [
        0.8218731880187988,
        -0.29554253816604614,
        0.008102388121187687
      ]
    },
    {
      "children": [
        6
      ],
      "name": "Bip001 L Clavicle",
      "rotation": [
        0.7279503345489502,
        -0.0027803615666925907,
        0.6856217980384827,
        -0.0018248815322294831
      ],
      "translation": [
        -0.639194130897522,
        0.2583726644515991,
        0.2157314121723175
      ]
    },
    {
      "children": [
        7
      ],
      "name": "Bip001 L UpperArm",
      "rotation": [
        -0.3035084307193756,
        0.4331541061401367,
        -0.5544577836990356,
        0.6425237059593201
      ],
      "scale": [
        1.0000009536743164,
        1.0,
        1.0
      ],
      "translation": [
        0.3811143934726715,
        2.288818308215923e-07,
        7.629394360719743e-08
      ]
    },
    {
      "children": [
        8
      ],
      "name": "Bip001 L Forearm",
      "rotation": [
        3.717303229677782e-07,
        4.5315708518955944e-08,
        -0.1910056620836258,
        0.9815889596939087
      ],
      "translation": [
        0.6259304285049438,
        -3.099441414633475e-08,
        -1.5258788721439487e-07
      ]
    },
    {
      "children": [
        9
      ],
      "name": "Bip001 L Hand",
      "rotation": [
        -0.7185298204421997,
        -0.12762399017810822,
        0.10980761796236038,
        0.6748105883598328
      ],
      "translation": [
        0.29218101501464844,
        7.629394360719743e-08,
        7.629394360719743e-08
      ]
    },
    {
      "children": [
        10
      ],
      "name": "Bip001 L Finger0",
      "rotation": [
        1.2758999218931422e-05,
        0.02974398247897625,
        -0.008025573566555977,
        0.9995253086090088
      ],
      "translation": [
        -0.03793000057339668,
        -0.20598918199539185,
        -0.42827796936035156
      ]
    },
    {
      "name": "Bip001 L Finger0Nub",
      "translation": [
        0.006019816268235445,
        -7.629394360719743e-08,
        -3.814697180359872e-08
      ]
    },
    {
      "children": [
        12
      ],
      "name": "Bip001 R Clavicle",
      "rotation": [
        0.8389626741409302,
        0.020831512287259102,
        -0.5424566864967346,
        -0.03805822134017944
      ],
      "translation": [
        -0.6603213548660278,
        0.2606661915779114,
        -0.14940941333770752
      ]
    },
    {
      "children": [
        13
      ],
      "name": "Bip001 R UpperArm",
      "rotation": [
        -0.47807562351226807,
        0.6095337271690369,
        0.42186349630355835,
        -0.4711087942123413
      ],
      "translation": [
        0.3811143636703491,
        -1.4210854397564648e-16,
        -9.536743306171047e-08
      ]
    },
    {
      "children": [
        14
      ],
      "name": "Bip001 R Forearm",
      "rotation": [
        1.0173636155741406e-07,
        1.7936889307179626e-08,
        -0.2696272134780884,
        0.9629647731781006
      ],
      "translation": [
        0.6259301900863647,
        -1.907348590179936e-08,
        -1.1444091541079615e-07
      ]
    },
    {
      "children": [
        15
      ],
      "name": "Bip001 R Hand",
      "rotation": [
        0.6753883361816406,
        0.2135341763496399,
        0.15880730748176575,
        0.687774658203125
      ],
      "translation": [
        0.34564825892448425,
        3.814697180359872e-08,
        1.1444091541079615e-07
      ]
    },
    {
      "children": [
        16
      ],
      "name": "Bip001 R Finger0",
      "rotation": [
        0.13082899153232574,
        -0.029399361461400986,
        -0.00921033974736929,
        0.9909261465072632
      ],
      "translation": [
        -0.025858880952000618,
        0.06714946776628494,
        -0.0151395034044981
      ]
    },
    {
      "name": "Bip001 R Finger0Nub",
      "rotation": [
        -1.1641519692684454e-10,
        -2.90333490582384e-09,
        1.0,
        -4.377216100692749e-08
      ],
      "scale": [
        -1.0,
        -1.0,
        -1.0
      ],
      "translation": [
        0.00601981533691287,
        -1.1444091541079615e-07,
        -7.629394360719743e-08
      ]
    },
    {
      "children": [
        18,
        19
      ],
      "name": "Bip001 Head",
      "rotation": [
        0.01383183989673853,
        0.028904873877763748,
        0.10153724998235703,
        0.994315505027771
      ],
      "translation": [
        0.08509567379951477,
        0.09654762595891953,
        -0.0009705639095045626
      ]
    },
    {
      "name": "Bip001 HeadNub",
      "translation": [
        0.6431751847267151,
        -0.08911094814538956,
        0.0014458560617640615
      ]
    },
    {
      "name": "Bone001",
      "rotation": [
        0.9769964814186096,
        0.212955042719841,
        -0.009600159712135792,
        -0.0059876334853470325
      ],
      "scale": [
        1.0,
        0.9999989867210388,
        1.0
      ],
      "translation": [
        0.3844587802886963,
        0.1702047735452652,
        0.02005094476044178
      ]
    },
    {
      "children": [
        21
      ],
      "name": "Bip001 L Thigh",
      "rotation": [
        0.7291969656944275,
        0.6836490035057068,
        -0.029425393790006638,
        -0.005479595623910427
      ],
      "translation": [
        -0.3670617341995239,
        -0.0050069428980350494,
        0.5469437837600708
      ]
    },
    {
      "children": [
        22
      ],
      "name": "Bip001 L Calf",
      "rotation": [
        -3.2358576618207735e-07,
        -5.302996441969299e-08,
        -0.27109643816947937,
        0.9625521898269653
      ],
      "translation": [
        0.48612892627716064,
        7.629394360719743e-08,
        3.814697180359872e-08
      ]
    },
    {
      "children": [
        23
      ],
      "name": "Bip001 L HorseLink",
      "rotation": [
        3.492132805149595e-07,
        6.483694647840821e-08,
        0.25423869490623474,
        0.9671415090560913
      ],
      "translation": [
        0.27110913395881653,
        7.629394360719743e-08,
        1.4210854397564648e-16
      ]
    },
    {
      "children": [
        24
      ],
      "name": "Bip001 L Foot",
      "rotation": [
        0.000832337187603116,
        0.023044299334287643,
        -0.01983957551419735,
        0.9995372295379639
      ],
      "translation": [
        0.15808673202991486,
        2.288818308215923e-07,
        -7.629394360719743e-08
      ]
    },
    {
      "children": [
        25
      ],
      "name": "Bip001 L Toe0",
      "rotation": [
        -0.0002931013877969235,
        0.00031033105915412307,
        0.7285551428794861,
        0.6849870085716248
      ],
      "translation": [
        0.029749643057584763,
        -0.07569381594657898,
        -0.05569400638341904
      ]
    },
    {
      "name": "Bip001 L Toe0Nub",
      "rotation": [
        -8.141796570271254e-09,
        9.313222415485711e-10,
        1.0,
        -4.377216100692749e-08
      ],
      "scale": [
        -1.0,
        -1.0,
        -1.0
      ],
      "translation": [
        0.0077268220484256744,
        -1.19209286886246e-09,
        -3.814697180359872e-08
      ]
    },
    {
      "children": [
        27
      ],
      "name": "Bip001 R Thigh",
      "rotation": [
        0.686371922492981,
        0.7260376811027527,
        0.04021525755524635,
        -0.012065866962075233
      ],
      "translation": [
        -0.4185248911380768,
        -0.004963073879480362,
        -0.45912185311317444
      ]
    },
    {
      "children": [
        28
      ],
      "name": "Bip001 R Calf",
      "rotation": [
        3.940245818512267e-08,
        2.4250649488521958e-08,
        -0.3138010501861572,
        0.9494887590408325
      ],
      "translation": [
        0.4720309376716614,
        -7.629394360719743e-08,
        3.814697180359872e-08
      ]
    },
    {
      "children": [
        29
      ],
      "name": "Bip001 R HorseLink",
      "rotation": [
        -8.727419498200106e-08,
        -5.126877056227386e-08,
        0.3036065399646759,
        0.9527974724769592
      ],
      "translation": [
        0.3589913845062256,
        -7.629394360719743e-08,
        -7.629394360719743e-08
      ]
    },
    {
      "children": [
        30
      ],
      "name": "Bip001 R Foot",
      "rotation": [
        0.013867656700313091,
        -0.035511359572410583,
        0.01958584412932396,
        0.9990810751914978
      ],
      "translation": [
        0.144491046667099,
        7.629394360719743e-08,
        7.629394360719743e-08
      ]
    },
    {
      "children": [
        31
      ],
      "name": "Bip001 R Toe0",
      "rotation": [
        -0.0014199953293427825,
        -0.0014228182844817638,
        0.7285107970237732,
        0.6850313544273376
      ],
      "translation": [
        -0.007309999316930771,
        0.5504677295684814,
        0.17758049070835114
      ]
    },
    {
      "name": "Bip001 R Toe0Nub",
      "translation": [
        0.0077268220484256744,
        -4.76837147544984e-09,
        -7.629394360719743e-08
      ]
    },
    {
      "name": "polySurface1_Bear_Brown_M_0",
      "rotation": [
        -0.47319215536117554,
        0.5235681533813477,
        -0.5227758288383484,
        -0.47819560766220093
      ],
      "translation": [
        0.7883368134498596,
        1.0204799175262451,
        0.07050777971744537
      ]
    },
    {
      "mesh": 0,
      "name": "Bear_丧尸",
      "rotation": [
        -0.7071067690849304,
        -0.0,
        0.0,
        0.7071067690849304
      ],
      "skin": 0
    }
  ],
  "samplers": [
    {}
  ],
  "scenes": [
    {
      "nodes": [
        0,
        33
      ]
    }
  ],
  "skins": [
    {
      "inverseBindMatrices": 7,
      "joints": [
        3,
        17,
        12,
        2,
        6,
        13,
        1,
        7,
        20,
        21,
        22,
        23,
        26,
        27,
        28,
        29,
        14,
        8
      ]
    }
  ],
  "textures": [
    {
      "name": "EnvSamplerTex",
      "sampler": 0,
      "source": 0
    }
  ]
}