{
  "accessors": [
    {
      "bufferView": 0,
      "componentType": 5126,
      "count": 992,
      "max": [
        3.155059814453125,
        16.19791030883789,
        3.152921676635742
      ],
      "min": [
        -3.155059576034546,
        0.14387916028499603,
        -3.1529226303100586
      ],
      "name": "antbase_e_01_LOD1_Material0/POSITION",
      "type": "VEC3"
    },
    {
      "bufferView": 0,
      "byteOffset": 12,
      "componentType": 5126,
      "count": 992,
      "name": "antbase_e_01_LOD1_Material0/NORMAL",
      "type": "VEC3"
    },
    {
      "bufferView": 0,
      "byteOffset": 24,
      "componentType": 5126,
      "count": 992,
      "name": "antbase_e_01_LOD1_Material0/TEXCOORD_0",
      "type": "VEC2"
    },
    {
      "bufferView": 1,
      "componentType": 5123,
      "count": 1944,
      "name": "antbase_e_01_LOD1_Material0/INDICES",
      "type": "SCALAR"
    }
  ],
  "asset": {
    "copyright": "Copyright (c) 2018-2020 Chukong Technologies Inc.",
    "generator": "FBX-glTF-conv",
    "version": "2.0"
  },
  "bufferViews": [
    {
      "buffer": 0,
      "byteLength": 31744,
      "byteStride": 32,
      "name": "antbase_e_01_LOD1_Material0",
      "target": 34962
    },
    {
      "buffer": 0,
      "byteLength": 3888,
      "byteOffset": 31744,
      "target": 34963
    }
  ],
  "buffers": [
    {
      "byteLength": 35632,
      "uri": "out.bin"
    }
  ],
  "extras": {
    "FBX-glTF-conv": {
      "animationFrameRate": 30.0,
      "fbxFileHeaderInfo": {
        "creationTimeStamp": {
          "day": 28,
          "hour": 16,
          "millisecond": 24,
          "minute": 2,
          "month": 5,
          "second": 31,
          "year": 2025
        },
        "creator": "FBX SDK/FBX Plugins version 2019.2",
        "sceneInfo": {
          "author": "",
          "comment": "",
          "keywords": "",
          "original": {
            "applicationName": "3ds Max",
            "applicationVendor": "Autodesk",
            "applicationVersion": "2020",
            "fileName": "E:\\33_PA-L\\L_守护饮料杯补充素材\\fangyuta（防御塔）\\antbase new.maya.fbx"
          },
          "revision": "",
          "subject": "",
          "title": "",
          "url": "D:\\Cocos\\PlayAble\\L_DefendTheCup\\assets\\Res\\Fbx\\Map\\antbase02\\antbase.maya.fbx"
        }
      }
    }
  },
  "images": [
    {
      "extras": {
        "FBX-glTF-conv": {
          "fileName": "Y:\\GameResource\\Assets\\res\\scene\\facility\\antbase\\texture\\t_antbase_e_01_d.tga",
          "relativeFileName": "Y:\\GameResource\\Assets\\res\\scene\\facility\\antbase\\texture\\t_antbase_e_01_d.tga"
        }
      },
      "name": "t_antbase_e_01_d_1",
      "uri": "data:image/png;base64,"
    },
    {
      "extras": {
        "FBX-glTF-conv": {
          "fileName": "Y:\\GameResource\\Assets\\res\\scene\\facility\\antbase\\texture\\t_antbase_e_01_n.tga",
          "relativeFileName": "Y:\\GameResource\\Assets\\res\\scene\\facility\\antbase\\texture\\t_antbase_e_01_n.tga"
        }
      },
      "name": "t_antbase_e_01_n_1",
      "uri": "data:image/png;base64,"
    }
  ],
  "materials": [
    {
      "extras": {
        "FBX-glTF-conv": {
          "raw": {
            "properties": {
              "ambient": {
                "value": [
                  0.0,
                  0.0,
                  0.0
                ]
              },
              "ambientFactor": {
                "value": 0.0
              },
              "bump": {
                "value": [
                  0.0,
                  0.0,
                  0.0
                ]
              },
              "bumpFactor": {
                "value": 0.30000001192092896
              },
              "diffuse": {
                "texture": {
                  "index": 0
                },
                "value": [
                  0.800000011920929,
                  0.800000011920929,
                  0.800000011920929
                ]
              },
              "diffuseFactor": {
                "value": 1.0
              },
              "displacementColor": {
                "value": [
                  0.0,
                  0.0,
                  0.0
                ]
              },
              "displacementFactor": {
                "value": 1.0
              },
              "emissive": {
                "value": [
                  0.0,
                  0.0,
                  0.0
                ]
              },
              "emissiveFactor": {
                "value": 0.0
              },
              "normalMap": {
                "texture": {
                  "index": 1
                },
                "value": [
                  0.0,
                  0.0,
                  0.0
                ]
              },
              "reflection": {
                "value": [
                  0.0,
                  0.0,
                  0.0
                ]
              },
              "reflectionFactor": {
                "value": 1.0
              },
              "shadingModel": "phong",
              "shininess": {
                "value": 1.0717734098434448
              },
              "specular": {
                "value": [
                  0.0,
                  0.0,
                  0.0
                ]
              },
              "specularFactor": {
                "value": 0.0
              },
              "transparencyFactor": {
                "value": 0.0
              },
              "transparentColor": {
                "value": [
                  1.0,
                  1.0,
                  1.0
                ]
              },
              "vectorDisplacementColor": {
                "value": [
                  0.0,
                  0.0,
                  0.0
                ]
              },
              "vectorDisplacementFactor": {
                "value": 1.0
              }
            },
            "type": "phong"
          }
        }
      },
      "name": "e_01"
    }
  ],
  "meshes": [
    {
      "name": "antbase_e_01_LOD1",
      "primitives": [
        {
          "attributes": {
            "NORMAL": 1,
            "POSITION": 0,
            "TEXCOORD_0": 2
          },
          "indices": 3,
          "material": 0
        }
      ]
    }
  ],
  "nodes": [
    {
      "mesh": 0,
      "name": "antbase_e_01_LOD1",
      "translation": [
        0.0,
        0.0,
        -4.017952903723199e-08
      ]
    }
  ],
  "samplers": [
    {}
  ],
  "scenes": [
    {
      "nodes": [
        0
      ]
    }
  ],
  "textures": [
    {
      "name": "t_antbase_e_01_d_1",
      "sampler": 0,
      "source": 0
    },
    {
      "name": "t_antbase_e_01_n_1",
      "sampler": 0,
      "source": 1
    }
  ]
}