{
  "accessors": [
    {
      "bufferView": 0,
      "componentType": 5126,
      "count": 924,
      "max": [
        4.216827392578125,
        4.216827869415283,
        7.876149654388428
      ],
      "min": [
        -4.216827392578125,
        -4.216827392578125,
        7.010120391845703
      ],
      "name": "dianchangchaifen1_Material0/POSITION",
      "type": "VEC3"
    },
    {
      "bufferView": 0,
      "byteOffset": 12,
      "componentType": 5126,
      "count": 924,
      "name": "dianchangchaifen1_Material0/NORMAL",
      "type": "VEC3"
    },
    {
      "bufferView": 0,
      "byteOffset": 24,
      "componentType": 5126,
      "count": 924,
      "name": "dianchangchaifen1_Material0/TEXCOORD_0",
      "type": "VEC2"
    },
    {
      "bufferView": 0,
      "byteOffset": 32,
      "componentType": 5126,
      "count": 924,
      "name": "dianchangchaifen1_Material0/TEXCOORD_1",
      "type": "VEC2"
    },
    {
      "bufferView": 0,
      "byteOffset": 40,
      "componentType": 5126,
      "count": 924,
      "name": "dianchangchaifen1_Material0/TEXCOORD_2",
      "type": "VEC2"
    },
    {
      "bufferView": 1,
      "componentType": 5123,
      "count": 2808,
      "name": "dianchangchaifen1_Material0/INDICES",
      "type": "SCALAR"
    },
    {
      "bufferView": 2,
      "componentType": 5126,
      "count": 832,
      "max": [
        3.340730905532837,
        3.340730905532837,
        7.548256874084473
      ],
      "min": [
        -3.340730905532837,
        -3.340730905532837,
        4.81287956237793
      ],
      "name": "dianchangchaifen1_Material0/POSITION",
      "type": "VEC3"
    },
    {
      "bufferView": 2,
      "byteOffset": 12,
      "componentType": 5126,
      "count": 832,
      "name": "dianchangchaifen1_Material0/NORMAL",
      "type": "VEC3"
    },
    {
      "bufferView": 2,
      "byteOffset": 24,
      "componentType": 5126,
      "count": 832,
      "name": "dianchangchaifen1_Material0/TEXCOORD_0",
      "type": "VEC2"
    },
    {
      "bufferView": 2,
      "byteOffset": 32,
      "componentType": 5126,
      "count": 832,
      "name": "dianchangchaifen1_Material0/TEXCOORD_1",
      "type": "VEC2"
    },
    {
      "bufferView": 2,
      "byteOffset": 40,
      "componentType": 5126,
      "count": 832,
      "name": "dianchangchaifen1_Material0/TEXCOORD_2",
      "type": "VEC2"
    },
    {
      "bufferView": 3,
      "componentType": 5123,
      "count": 4200,
      "name": "dianchangchaifen1_Material0/INDICES",
      "type": "SCALAR"
    },
    {
      "bufferView": 4,
      "componentType": 5126,
      "count": 1868,
      "max": [
        3.9903249740600586,
        3.9903249740600586,
        10.115582466125488
      ],
      "min": [
        -3.9903249740600586,
        -3.9903249740600586,
        6.799521446228027
      ],
      "name": "dianchangchaifen1_Material0/POSITION",
      "type": "VEC3"
    },
    {
      "bufferView": 4,
      "byteOffset": 12,
      "componentType": 5126,
      "count": 1868,
      "name": "dianchangchaifen1_Material0/NORMAL",
      "type": "VEC3"
    },
    {
      "bufferView": 4,
      "byteOffset": 24,
      "componentType": 5126,
      "count": 1868,
      "name": "dianchangchaifen1_Material0/TEXCOORD_0",
      "type": "VEC2"
    },
    {
      "bufferView": 4,
      "byteOffset": 32,
      "componentType": 5126,
      "count": 1868,
      "name": "dianchangchaifen1_Material0/TEXCOORD_1",
      "type": "VEC2"
    },
    {
      "bufferView": 4,
      "byteOffset": 40,
      "componentType": 5126,
      "count": 1868,
      "name": "dianchangchaifen1_Material0/TEXCOORD_2",
      "type": "VEC2"
    },
    {
      "bufferView": 5,
      "componentType": 5123,
      "count": 7686,
      "name": "dianchangchaifen1_Material0/INDICES",
      "type": "SCALAR"
    }
  ],
  "asset": {
    "copyright": "Copyright (c) 2018-2020 Chukong Technologies Inc.",
    "generator": "FBX-glTF-conv",
    "version": "2.0"
  },
  "bufferViews": [
    {
      "buffer": 0,
      "byteLength": 44352,
      "byteStride": 48,
      "name": "dianchangchaifen1_Material0",
      "target": 34962
    },
    {
      "buffer": 0,
      "byteLength": 5616,
      "byteOffset": 44352,
      "target": 34963
    },
    {
      "buffer": 0,
      "byteLength": 39936,
      "byteOffset": 49968,
      "byteStride": 48,
      "name": "dianchangchaifen1_Material0",
      "target": 34962
    },
    {
      "buffer": 0,
      "byteLength": 8400,
      "byteOffset": 89904,
      "target": 34963
    },
    {
      "buffer": 0,
      "byteLength": 89664,
      "byteOffset": 98304,
      "byteStride": 48,
      "name": "dianchangchaifen1_Material0",
      "target": 34962
    },
    {
      "buffer": 0,
      "byteLength": 15372,
      "byteOffset": 187968,
      "target": 34963
    }
  ],
  "buffers": [
    {
      "byteLength": 203340,
      "uri": "out.bin"
    }
  ],
  "extras": {
    "FBX-glTF-conv": {
      "animationFrameRate": 30.0,
      "fbxFileHeaderInfo": {
        "creationTimeStamp": {
          "day": 19,
          "hour": 17,
          "millisecond": 947,
          "minute": 40,
          "month": 9,
          "second": 44,
          "year": 2025
        },
        "creator": "FBX SDK/FBX Plugins version 2020.3.9",
        "sceneInfo": {
          "author": "",
          "comment": "",
          "keywords": "",
          "original": {
            "applicationName": "3ds Max",
            "applicationVendor": "Autodesk",
            "applicationVersion": "2026",
            "fileName": "E:\\pa_lyk\\PlayAble\\SSD_LoggingSurvival\\assets\\Res\\Fbx\\Ta\\dianchangchaifen1.FBX"
          },
          "revision": "",
          "subject": "",
          "title": "",
          "url": "D:\\Cocos\\PlayAble\\SSD_0623_JHF_FaMuShengCun\\assets\\Res\\Fbx\\Ta\\dianchangchaifen1.FBX"
        }
      }
    }
  },
  "materials": [
    {
      "extras": {
        "FBX-glTF-conv": {
          "raw": {
            "properties": {
              "3dsMax": {
                "value": {
                  "ClassIDa": {
                    "value": -804315648
                  },
                  "ClassIDb": {
                    "value": -1099438848
                  },
                  "SuperClassID": {
                    "value": 3072
                  },
                  "main": {
                    "value": {
                      "baseColor": {
                        "value": [
                          1.0,
                          1.0,
                          1.0,
                          1.0
                        ]
                      },
                      "bump_map_amt": {
                        "value": 1.0
                      },
                      "displacement_amt": {
                        "value": 1.0
                      },
                      "emit_color": {
                        "value": [
                          0.0,
                          0.0,
                          0.0,
                          1.0
                        ]
                      },
                      "metalness": {
                        "value": 0.0
                      },
                      "roughness": {
                        "value": 0.0
                      },
                      "useGlossiness": {
                        "value": 2
                      }
                    }
                  },
                  "settings": {
                    "value": {
                      "ao_affects_diffuse": {
                        "value": true
                      },
                      "ao_affects_reflection": {
                        "value": true
                      },
                      "normal_flip_green": {
                        "value": false
                      },
                      "normal_flip_red": {
                        "value": false
                      }
                    }
                  }
                }
              },
              "AmbientColor": {
                "value": [
                  1.0,
                  1.0,
                  1.0
                ]
              },
              "DiffuseColor": {
                "value": [
                  1.0,
                  1.0,
                  1.0
                ]
              },
              "EmissiveColor": {
                "value": [
                  0.0,
                  0.0,
                  0.0
                ]
              },
              "EmissiveFactor": {
                "value": 0.0
              },
              "MultiLayer": {
                "value": false
              },
              "ShadingModel": {
                "value": "unknown"
              },
              "ShininessExponent": {
                "value": 1024.0
              },
              "SpecularColor": {
                "value": [
                  1.0,
                  1.0,
                  1.0
                ]
              },
              "SpecularFactor": {
                "value": 2.0
              },
              "TransparencyFactor": {
                "value": 0.0
              }
            }
          }
        }
      },
      "name": "03"
    },
    {
      "extras": {
        "FBX-glTF-conv": {
          "raw": {
            "properties": {
              "3dsMax": {
                "value": {
                  "ClassIDa": {
                    "value": -804315648
                  },
                  "ClassIDb": {
                    "value": -1099438848
                  },
                  "SuperClassID": {
                    "value": 3072
                  },
                  "main": {
                    "value": {
                      "baseColor": {
                        "value": [
                          1.0,
                          1.0,
                          1.0,
                          1.0
                        ]
                      },
                      "bump_map_amt": {
                        "value": 1.0
                      },
                      "displacement_amt": {
                        "value": 1.0
                      },
                      "emit_color": {
                        "value": [
                          0.0,
                          0.0,
                          0.0,
                          1.0
                        ]
                      },
                      "metalness": {
                        "value": 0.0
                      },
                      "roughness": {
                        "value": 0.0
                      },
                      "useGlossiness": {
                        "value": 2
                      }
                    }
                  },
                  "settings": {
                    "value": {
                      "ao_affects_diffuse": {
                        "value": true
                      },
                      "ao_affects_reflection": {
                        "value": true
                      },
                      "normal_flip_green": {
                        "value": false
                      },
                      "normal_flip_red": {
                        "value": false
                      }
                    }
                  }
                }
              },
              "AmbientColor": {
                "value": [
                  1.0,
                  1.0,
                  1.0
                ]
              },
              "DiffuseColor": {
                "value": [
                  1.0,
                  1.0,
                  1.0
                ]
              },
              "EmissiveColor": {
                "value": [
                  0.0,
                  0.0,
                  0.0
                ]
              },
              "EmissiveFactor": {
                "value": 0.0
              },
              "MultiLayer": {
                "value": false
              },
              "ShadingModel": {
                "value": "unknown"
              },
              "ShininessExponent": {
                "value": 1024.0
              },
              "SpecularColor": {
                "value": [
                  1.0,
                  1.0,
                  1.0
                ]
              },
              "SpecularFactor": {
                "value": 2.0
              },
              "TransparencyFactor": {
                "value": 0.0
              }
            }
          }
        }
      },
      "name": "01"
    },
    {
      "extras": {
        "FBX-glTF-conv": {
          "raw": {
            "properties": {
              "3dsMax": {
                "value": {
                  "ClassIDa": {
                    "value": -804315648
                  },
                  "ClassIDb": {
                    "value": -1099438848
                  },
                  "SuperClassID": {
                    "value": 3072
                  },
                  "main": {
                    "value": {
                      "baseColor": {
                        "value": [
                          1.0,
                          1.0,
                          1.0,
                          1.0
                        ]
                      },
                      "bump_map_amt": {
                        "value": 1.0
                      },
                      "displacement_amt": {
                        "value": 1.0
                      },
                      "emit_color": {
                        "value": [
                          0.0,
                          0.0,
                          0.0,
                          1.0
                        ]
                      },
                      "metalness": {
                        "value": 0.0
                      },
                      "roughness": {
                        "value": 0.0
                      },
                      "useGlossiness": {
                        "value": 2
                      }
                    }
                  },
                  "settings": {
                    "value": {
                      "ao_affects_diffuse": {
                        "value": true
                      },
                      "ao_affects_reflection": {
                        "value": true
                      },
                      "normal_flip_green": {
                        "value": false
                      },
                      "normal_flip_red": {
                        "value": false
                      }
                    }
                  }
                }
              },
              "AmbientColor": {
                "value": [
                  1.0,
                  1.0,
                  1.0
                ]
              },
              "DiffuseColor": {
                "value": [
                  1.0,
                  1.0,
                  1.0
                ]
              },
              "EmissiveColor": {
                "value": [
                  0.0,
                  0.0,
                  0.0
                ]
              },
              "EmissiveFactor": {
                "value": 0.0
              },
              "MultiLayer": {
                "value": false
              },
              "ShadingModel": {
                "value": "unknown"
              },
              "ShininessExponent": {
                "value": 1024.0
              },
              "SpecularColor": {
                "value": [
                  1.0,
                  1.0,
                  1.0
                ]
              },
              "SpecularFactor": {
                "value": 2.0
              },
              "TransparencyFactor": {
                "value": 0.0
              }
            }
          }
        }
      },
      "name": "02"
    }
  ],
  "meshes": [
    {
      "name": "dianchangchaifen1",
      "primitives": [
        {
          "attributes": {
            "NORMAL": 1,
            "POSITION": 0,
            "TEXCOORD_0": 2,
            "TEXCOORD_1": 3,
            "TEXCOORD_2": 4
          },
          "indices": 5,
          "material": 0
        },
        {
          "attributes": {
            "NORMAL": 7,
            "POSITION": 6,
            "TEXCOORD_0": 8,
            "TEXCOORD_1": 9,
            "TEXCOORD_2": 10
          },
          "indices": 11,
          "material": 1
        },
        {
          "attributes": {
            "NORMAL": 13,
            "POSITION": 12,
            "TEXCOORD_0": 14,
            "TEXCOORD_1": 15,
            "TEXCOORD_2": 16
          },
          "indices": 17,
          "material": 2
        }
      ]
    }
  ],
  "nodes": [
    {
      "mesh": 0,
      "name": "dianchangchaifen1",
      "rotation": [
        -0.7071067690849304,
        -0.0,
        0.0,
        0.7071067690849304
      ]
    }
  ],
  "scenes": [
    {
      "nodes": [
        0
      ]
    }
  ]
}