{
  "accessors": [
    {
      "bufferView": 0,
      "componentType": 5126,
      "count": 207,
      "max": [
        0.029999999329447746,
        0.0022047804668545723,
        0.1599999964237213
      ],
      "min": [
        -0.029999999329447746,
        -0.0022047804668545723,
        -0.1599999964237213
      ],
      "name": "chi/POSITION",
      "type": "VEC3"
    },
    {
      "bufferView": 0,
      "byteOffset": 12,
      "componentType": 5126,
      "count": 207,
      "name": "chi/NORMAL",
      "type": "VEC3"
    },
    {
      "bufferView": 0,
      "byteOffset": 24,
      "componentType": 5126,
      "count": 207,
      "name": "chi/TEXCOORD_0",
      "type": "VEC2"
    },
    {
      "bufferView": 1,
      "componentType": 5123,
      "count": 756,
      "name": "chi/INDICES",
      "type": "SCALAR"
    }
  ],
  "asset": {
    "copyright": "Copyright (c) 2018-2020 Chukong Technologies Inc.",
    "generator": "FBX-glTF-conv",
    "version": "2.0"
  },
  "bufferViews": [
    {
      "buffer": 0,
      "byteLength": 6624,
      "byteStride": 32,
      "name": "chi",
      "target": 34962
    },
    {
      "buffer": 0,
      "byteLength": 1512,
      "byteOffset": 6624,
      "target": 34963
    }
  ],
  "buffers": [
    {
      "byteLength": 8136,
      "uri": "out.bin"
    }
  ],
  "extras": {
    "FBX-glTF-conv": {
      "animationFrameRate": 24.0,
      "fbxFileHeaderInfo": {
        "creationTimeStamp": {
          "day": 24,
          "hour": 14,
          "millisecond": 554,
          "minute": 20,
          "month": 3,
          "second": 7,
          "year": 2025
        },
        "creator": "FBX SDK/FBX Plugins version 2018.1.1",
        "sceneInfo": {
          "author": "",
          "comment": "",
          "keywords": "",
          "original": {
            "applicationName": "Maya",
            "applicationVendor": "Autodesk",
            "applicationVersion": "201800",
            "fileName": "O:\\L\\prp\\直尺\\mod\\ZhiChi.fbx"
          },
          "revision": "",
          "subject": "",
          "title": "",
          "url": "D:\\Cocos\\PlayAble\\L_0812_WP_FlowerBattle\\assets\\Res\\Fbx\\Map\\zhuangshi\\zhichi\\ZhiChi.fbx"
        }
      }
    }
  },
  "images": [
    {
      "extras": {
        "FBX-glTF-conv": {
          "fileName": "D:\\Cocos\\PlayAble\\L_0812_WP_FlowerBattle\\temp\\asset-db\\assets\\fbx.FBX-glTF-conv\\ff54c8e5-b89c-4540-a168-69e34516d431\\output\\.fbm\\D7112276\\ZhiChi.fbm/C.png",
          "relativeFileName": "..\\..\\..\\..\\..\\..\\temp\\asset-db\\assets\\fbx.FBX-glTF-conv\\ff54c8e5-b89c-4540-a168-69e34516d431\\output\\.fbm\\D7112276\\ZhiChi.fbm\\C.png"
        }
      },
      "name": "C_2",
      "uri": "C.png"
    },
    {
      "extras": {
        "FBX-glTF-conv": {
          "fileName": "D:\\Cocos\\PlayAble\\L_0812_WP_FlowerBattle\\temp\\asset-db\\assets\\fbx.FBX-glTF-conv\\ff54c8e5-b89c-4540-a168-69e34516d431\\output\\.fbm\\D7112276\\ZhiChi.fbm/OP.png",
          "relativeFileName": "..\\..\\..\\..\\..\\..\\temp\\asset-db\\assets\\fbx.FBX-glTF-conv\\ff54c8e5-b89c-4540-a168-69e34516d431\\output\\.fbm\\D7112276\\ZhiChi.fbm\\OP.png"
        }
      },
      "name": "OP_1",
      "uri": "OP.png"
    }
  ],
  "materials": [
    {
      "extras": {
        "FBX-glTF-conv": {
          "raw": {
            "properties": {
              "ambient": {
                "value": [
                  0.0,
                  0.0,
                  0.0
                ]
              },
              "ambientFactor": {
                "value": 1.0
              },
              "bump": {
                "value": [
                  0.0,
                  0.0,
                  0.0
                ]
              },
              "bumpFactor": {
                "value": 1.0
              },
              "diffuse": {
                "texture": {
                  "index": 0
                },
                "value": [
                  1.0,
                  1.0,
                  1.0
                ]
              },
              "diffuseFactor": {
                "value": 1.0
              },
              "displacementColor": {
                "value": [
                  0.0,
                  0.0,
                  0.0
                ]
              },
              "displacementFactor": {
                "value": 1.0
              },
              "emissive": {
                "value": [
                  0.0,
                  0.0,
                  0.0
                ]
              },
              "emissiveFactor": {
                "value": 1.0
              },
              "normalMap": {
                "value": [
                  0.0,
                  0.0,
                  0.0
                ]
              },
              "reflection": {
                "value": [
                  0.0,
                  0.0,
                  0.0
                ]
              },
              "reflectionFactor": {
                "value": 1.0
              },
              "shadingModel": "Phong",
              "shininess": {
                "value": 20.0
              },
              "specular": {
                "value": [
                  0.20000000298023224,
                  0.20000000298023224,
                  0.20000000298023224
                ]
              },
              "specularFactor": {
                "value": 1.0
              },
              "transparencyFactor": {
                "value": 1.0
              },
              "transparentColor": {
                "texture": {
                  "index": 1
                },
                "value": [
                  0.0,
                  0.0,
                  0.0
                ]
              },
              "vectorDisplacementColor": {
                "value": [
                  0.0,
                  0.0,
                  0.0
                ]
              },
              "vectorDisplacementFactor": {
                "value": 1.0
              }
            },
            "type": "phong"
          }
        }
      },
      "name": "Mat3d66-9474277-1-10727_Inst"
    }
  ],
  "meshes": [
    {
      "name": "chi",
      "primitives": [
        {
          "attributes": {
            "NORMAL": 1,
            "POSITION": 0,
            "TEXCOORD_0": 2
          },
          "indices": 3,
          "material": 0
        }
      ]
    }
  ],
  "nodes": [
    {
      "mesh": 0,
      "name": "chi"
    }
  ],
  "samplers": [
    {}
  ],
  "scenes": [
    {
      "nodes": [
        0
      ]
    }
  ],
  "textures": [
    {
      "name": "C_2",
      "sampler": 0,
      "source": 0
    },
    {
      "name": "OP_1",
      "sampler": 0,
      "source": 1
    }
  ]
}