{
  "accessors": [
    {
      "bufferView": 0,
      "componentType": 5126,
      "count": 607,
      "max": [
        2.9272398948669434,
        0.8066667318344116,
        3.495096445083618
      ],
      "min": [
        -2.9272398948669434,
        -0.7654582262039185,
        -9.841115951538086
      ],
      "name": "FBX_toyshovel_01/POSITION",
      "type": "VEC3"
    },
    {
      "bufferView": 0,
      "byteOffset": 12,
      "componentType": 5126,
      "count": 607,
      "name": "FBX_toyshovel_01/NORMAL",
      "type": "VEC3"
    },
    {
      "bufferView": 0,
      "byteOffset": 24,
      "componentType": 5126,
      "count": 607,
      "name": "FBX_toyshovel_01/TEXCOORD_0",
      "type": "VEC2"
    },
    {
      "bufferView": 1,
      "componentType": 5123,
      "count": 2658,
      "name": "FBX_toyshovel_01/INDICES",
      "type": "SCALAR"
    }
  ],
  "asset": {
    "copyright": "Copyright (c) 2018-2020 Chukong Technologies Inc.",
    "generator": "FBX-glTF-conv",
    "version": "2.0"
  },
  "bufferViews": [
    {
      "buffer": 0,
      "byteLength": 19424,
      "byteStride": 32,
      "name": "FBX_toyshovel_01",
      "target": 34962
    },
    {
      "buffer": 0,
      "byteLength": 5316,
      "byteOffset": 19424,
      "target": 34963
    }
  ],
  "buffers": [
    {
      "byteLength": 24740,
      "uri": "out.bin"
    }
  ],
  "extras": {
    "FBX-glTF-conv": {
      "animationFrameRate": 24.0,
      "fbxFileHeaderInfo": {
        "creationTimeStamp": {
          "day": 1,
          "hour": 18,
          "millisecond": 122,
          "minute": 17,
          "month": 7,
          "second": 4,
          "year": 2025
        },
        "creator": "FBX SDK/FBX Plugins version 2020.1",
        "sceneInfo": {
          "author": "",
          "comment": "",
          "keywords": "",
          "original": {
            "applicationName": "Maya",
            "applicationVendor": "Autodesk",
            "applicationVersion": "2022",
            "fileName": "C:\\Users\\Administrator\\Desktop\\FBX_toyshovel_01.fbx"
          },
          "revision": "",
          "subject": "",
          "title": "",
          "url": "D:\\Cocos\\PlayAble\\L_0812_WP_FlowerBattle\\assets\\Res\\Fbx\\Map\\zhuangshi\\chanzi\\FBX_toyshovel_01.fbx"
        }
      }
    }
  },
  "materials": [
    {
      "extras": {
        "FBX-glTF-conv": {
          "raw": {
            "properties": {
              "ambient": {
                "value": [
                  0.0,
                  0.0,
                  0.0
                ]
              },
              "ambientFactor": {
                "value": 1.0
              },
              "bump": {
                "value": [
                  0.0,
                  0.0,
                  0.0
                ]
              },
              "bumpFactor": {
                "value": 1.0
              },
              "diffuse": {
                "value": [
                  0.5,
                  0.5,
                  0.5
                ]
              },
              "diffuseFactor": {
                "value": 0.800000011920929
              },
              "displacementColor": {
                "value": [
                  0.0,
                  0.0,
                  0.0
                ]
              },
              "displacementFactor": {
                "value": 1.0
              },
              "emissive": {
                "value": [
                  0.0,
                  0.0,
                  0.0
                ]
              },
              "emissiveFactor": {
                "value": 1.0
              },
              "normalMap": {
                "value": [
                  0.0,
                  0.0,
                  0.0
                ]
              },
              "reflection": {
                "value": [
                  0.0,
                  0.0,
                  0.0
                ]
              },
              "reflectionFactor": {
                "value": 0.5
              },
              "shadingModel": "Phong",
              "shininess": {
                "value": 6.311790943145752
              },
              "specular": {
                "value": [
                  0.5,
                  0.5,
                  0.5
                ]
              },
              "specularFactor": {
                "value": 1.0
              },
              "transparencyFactor": {
                "value": 1.0
              },
              "transparentColor": {
                "value": [
                  0.0,
                  0.0,
                  0.0
                ]
              },
              "vectorDisplacementColor": {
                "value": [
                  0.0,
                  0.0,
                  0.0
                ]
              },
              "vectorDisplacementFactor": {
                "value": 1.0
              }
            },
            "type": "phong"
          }
        }
      },
      "name": "a"
    }
  ],
  "meshes": [
    {
      "name": "FBX_toyshovel_01",
      "primitives": [
        {
          "attributes": {
            "NORMAL": 1,
            "POSITION": 0,
            "TEXCOORD_0": 2
          },
          "indices": 3,
          "material": 0
        }
      ]
    }
  ],
  "nodes": [
    {
      "mesh": 0,
      "name": "FBX_toyshovel_01"
    }
  ],
  "scenes": [
    {
      "nodes": [
        0
      ]
    }
  ]
}