{
  "accessors": [
    {
      "bufferView": 0,
      "componentType": 5126,
      "count": 40,
      "max": [
        0.5,
        0.5,
        0.0
      ],
      "min": [
        -0.5,
        -0.5,
        0.0
      ],
      "name": "Plane001/POSITION",
      "type": "VEC3"
    },
    {
      "bufferView": 0,
      "byteOffset": 12,
      "componentType": 5126,
      "count": 40,
      "name": "Plane001/NORMAL",
      "type": "VEC3"
    },
    {
      "bufferView": 0,
      "byteOffset": 24,
      "componentType": 5126,
      "count": 40,
      "name": "Plane001/TEXCOORD_0",
      "type": "VEC2"
    },
    {
      "bufferView": 1,
      "componentType": 5123,
      "count": 90,
      "name": "Plane001/INDICES",
      "type": "SCALAR"
    }
  ],
  "asset": {
    "copyright": "Copyright (c) 2018-2020 Chukong Technologies Inc.",
    "generator": "FBX-glTF-conv",
    "version": "2.0"
  },
  "bufferViews": [
    {
      "buffer": 0,
      "byteLength": 1280,
      "byteStride": 32,
      "name": "Plane001",
      "target": 34962
    },
    {
      "buffer": 0,
      "byteLength": 180,
      "byteOffset": 1280,
      "target": 34963
    }
  ],
  "buffers": [
    {
      "byteLength": 1460,
      "uri": "out.bin"
    }
  ],
  "extras": {
    "FBX-glTF-conv": {
      "animationFrameRate": 30.0,
      "fbxFileHeaderInfo": {
        "creationTimeStamp": {
          "day": 2,
          "hour": 4,
          "millisecond": 116,
          "minute": 39,
          "month": 7,
          "second": 46,
          "year": 2025
        },
        "creator": "FBX SDK/FBX Plugins version 2019.2",
        "sceneInfo": {
          "author": "",
          "comment": "",
          "keywords": "",
          "original": {
            "applicationName": "3ds Max",
            "applicationVendor": "Autodesk",
            "applicationVersion": "2020",
            "fileName": "C:\\Users\\北远\\Desktop\\fangpian.fbx"
          },
          "revision": "",
          "subject": "",
          "title": "",
          "url": "D:\\Cocos\\PlayAble\\L_0812_WP_FlowerBattle\\assets\\Res\\Fbx\\Map\\Biuld\\fangpian.fbx"
        }
      }
    }
  },
  "materials": [
    {
      "extras": {
        "FBX-glTF-conv": {
          "raw": {
            "properties": {
              "ambient": {
                "value": [
                  0.5882353186607361,
                  0.5882353186607361,
                  0.5882353186607361
                ]
              },
              "ambientFactor": {
                "value": 0.0
              },
              "bump": {
                "value": [
                  0.0,
                  0.0,
                  0.0
                ]
              },
              "bumpFactor": {
                "value": 1.0
              },
              "diffuse": {
                "value": [
                  0.5882353186607361,
                  0.5882353186607361,
                  0.5882353186607361
                ]
              },
              "diffuseFactor": {
                "value": 1.0
              },
              "displacementColor": {
                "value": [
                  0.0,
                  0.0,
                  0.0
                ]
              },
              "displacementFactor": {
                "value": 1.0
              },
              "emissive": {
                "value": [
                  0.0,
                  0.0,
                  0.0
                ]
              },
              "emissiveFactor": {
                "value": 0.0
              },
              "normalMap": {
                "value": [
                  0.0,
                  0.0,
                  0.0
                ]
              },
              "reflection": {
                "value": [
                  0.0,
                  0.0,
                  0.0
                ]
              },
              "reflectionFactor": {
                "value": 1.0
              },
              "shadingModel": "phong",
              "shininess": {
                "value": 1.9999998807907104
              },
              "specular": {
                "value": [
                  0.8999999761581421,
                  0.8999999761581421,
                  0.8999999761581421
                ]
              },
              "specularFactor": {
                "value": 0.0
              },
              "transparencyFactor": {
                "value": 0.0
              },
              "transparentColor": {
                "value": [
                  1.0,
                  1.0,
                  1.0
                ]
              },
              "vectorDisplacementColor": {
                "value": [
                  0.0,
                  0.0,
                  0.0
                ]
              },
              "vectorDisplacementFactor": {
                "value": 1.0
              }
            },
            "type": "phong"
          }
        }
      },
      "name": "all"
    }
  ],
  "meshes": [
    {
      "name": "Plane001",
      "primitives": [
        {
          "attributes": {
            "NORMAL": 1,
            "POSITION": 0,
            "TEXCOORD_0": 2
          },
          "indices": 3,
          "material": 0
        }
      ]
    }
  ],
  "nodes": [
    {
      "mesh": 0,
      "name": "Plane001",
      "rotation": [
        -0.7071067690849304,
        -0.0,
        0.0,
        0.7071067690849304
      ]
    }
  ],
  "scenes": [
    {
      "nodes": [
        0
      ]
    }
  ]
}