{
  "accessors": [
    {
      "bufferView": 0,
      "componentType": 5126,
      "count": 187,
      "max": [
        1.8777698278427124,
        1.8662596940994263,
        5.1635422706604
      ],
      "min": [
        -1.8661768436431885,
        -1.6732871532440186,
        0.6482921242713928
      ],
      "name": "chujifadianchang_Material0/POSITION",
      "type": "VEC3"
    },
    {
      "bufferView": 0,
      "byteOffset": 12,
      "componentType": 5126,
      "count": 187,
      "name": "chujifadianchang_Material0/NORMAL",
      "type": "VEC3"
    },
    {
      "bufferView": 0,
      "byteOffset": 24,
      "componentType": 5126,
      "count": 187,
      "name": "chujifadianchang_Material0/TEXCOORD_0",
      "type": "VEC2"
    },
    {
      "bufferView": 0,
      "byteOffset": 32,
      "componentType": 5126,
      "count": 187,
      "name": "chujifadianchang_Material0/TEXCOORD_1",
      "type": "VEC2"
    },
    {
      "bufferView": 0,
      "byteOffset": 40,
      "componentType": 5126,
      "count": 187,
      "name": "chujifadianchang_Material0/COLOR_0",
      "type": "VEC4"
    },
    {
      "bufferView": 1,
      "componentType": 5123,
      "count": 450,
      "name": "chujifadianchang_Material0/INDICES",
      "type": "SCALAR"
    },
    {
      "bufferView": 2,
      "componentType": 5126,
      "count": 151,
      "max": [
        1.5914909839630127,
        0.4637523591518402,
        4.491198539733887
      ],
      "min": [
        0.6725409030914307,
        -1.2101627588272095,
        1.86003839969635
      ],
      "name": "chujifadianchang_Material0/POSITION",
      "type": "VEC3"
    },
    {
      "bufferView": 2,
      "byteOffset": 12,
      "componentType": 5126,
      "count": 151,
      "name": "chujifadianchang_Material0/NORMAL",
      "type": "VEC3"
    },
    {
      "bufferView": 2,
      "byteOffset": 24,
      "componentType": 5126,
      "count": 151,
      "name": "chujifadianchang_Material0/TEXCOORD_0",
      "type": "VEC2"
    },
    {
      "bufferView": 2,
      "byteOffset": 32,
      "componentType": 5126,
      "count": 151,
      "name": "chujifadianchang_Material0/TEXCOORD_1",
      "type": "VEC2"
    },
    {
      "bufferView": 2,
      "byteOffset": 40,
      "componentType": 5126,
      "count": 151,
      "name": "chujifadianchang_Material0/COLOR_0",
      "type": "VEC4"
    },
    {
      "bufferView": 3,
      "componentType": 5123,
      "count": 480,
      "name": "chujifadianchang_Material0/INDICES",
      "type": "SCALAR"
    },
    {
      "bufferView": 4,
      "componentType": 5126,
      "count": 158,
      "max": [
        3.1258833408355713,
        3.1259303092956543,
        0.01728389598429203
      ],
      "min": [
        -3.1258490085601807,
        -3.1258022785186768,
        -0.1998692750930786
      ],
      "name": "chujifadianchang_Material0/POSITION",
      "type": "VEC3"
    },
    {
      "bufferView": 4,
      "byteOffset": 12,
      "componentType": 5126,
      "count": 158,
      "name": "chujifadianchang_Material0/NORMAL",
      "type": "VEC3"
    },
    {
      "bufferView": 4,
      "byteOffset": 24,
      "componentType": 5126,
      "count": 158,
      "name": "chujifadianchang_Material0/TEXCOORD_0",
      "type": "VEC2"
    },
    {
      "bufferView": 4,
      "byteOffset": 32,
      "componentType": 5126,
      "count": 158,
      "name": "chujifadianchang_Material0/TEXCOORD_1",
      "type": "VEC2"
    },
    {
      "bufferView": 4,
      "byteOffset": 40,
      "componentType": 5126,
      "count": 158,
      "name": "chujifadianchang_Material0/COLOR_0",
      "type": "VEC4"
    },
    {
      "bufferView": 5,
      "componentType": 5123,
      "count": 543,
      "name": "chujifadianchang_Material0/INDICES",
      "type": "SCALAR"
    },
    {
      "bufferView": 6,
      "componentType": 5126,
      "count": 346,
      "max": [
        2.2541685104370117,
        2.2403414249420166,
        5.903956413269043
      ],
      "min": [
        -2.2402586936950684,
        -2.079441547393799,
        0.017018014565110207
      ],
      "name": "chujifadianchang_Material0/POSITION",
      "type": "VEC3"
    },
    {
      "bufferView": 6,
      "byteOffset": 12,
      "componentType": 5126,
      "count": 346,
      "name": "chujifadianchang_Material0/NORMAL",
      "type": "VEC3"
    },
    {
      "bufferView": 6,
      "byteOffset": 24,
      "componentType": 5126,
      "count": 346,
      "name": "chujifadianchang_Material0/TEXCOORD_0",
      "type": "VEC2"
    },
    {
      "bufferView": 6,
      "byteOffset": 32,
      "componentType": 5126,
      "count": 346,
      "name": "chujifadianchang_Material0/TEXCOORD_1",
      "type": "VEC2"
    },
    {
      "bufferView": 6,
      "byteOffset": 40,
      "componentType": 5126,
      "count": 346,
      "name": "chujifadianchang_Material0/COLOR_0",
      "type": "VEC4"
    },
    {
      "bufferView": 7,
      "componentType": 5123,
      "count": 1500,
      "name": "chujifadianchang_Material0/INDICES",
      "type": "SCALAR"
    }
  ],
  "asset": {
    "copyright": "Copyright (c) 2018-2020 Chukong Technologies Inc.",
    "generator": "FBX-glTF-conv",
    "version": "2.0"
  },
  "bufferViews": [
    {
      "buffer": 0,
      "byteLength": 10472,
      "byteStride": 56,
      "name": "chujifadianchang_Material0",
      "target": 34962
    },
    {
      "buffer": 0,
      "byteLength": 900,
      "byteOffset": 10472,
      "target": 34963
    },
    {
      "buffer": 0,
      "byteLength": 8456,
      "byteOffset": 11372,
      "byteStride": 56,
      "name": "chujifadianchang_Material0",
      "target": 34962
    },
    {
      "buffer": 0,
      "byteLength": 960,
      "byteOffset": 19828,
      "target": 34963
    },
    {
      "buffer": 0,
      "byteLength": 8848,
      "byteOffset": 20788,
      "byteStride": 56,
      "name": "chujifadianchang_Material0",
      "target": 34962
    },
    {
      "buffer": 0,
      "byteLength": 1086,
      "byteOffset": 29636,
      "target": 34963
    },
    {
      "buffer": 0,
      "byteLength": 19376,
      "byteOffset": 30722,
      "byteStride": 56,
      "name": "chujifadianchang_Material0",
      "target": 34962
    },
    {
      "buffer": 0,
      "byteLength": 3000,
      "byteOffset": 50098,
      "target": 34963
    }
  ],
  "buffers": [
    {
      "byteLength": 53098,
      "uri": "out.bin"
    }
  ],
  "extras": {
    "FBX-glTF-conv": {
      "animationFrameRate": 30.0,
      "fbxFileHeaderInfo": {
        "creationTimeStamp": {
          "day": 19,
          "hour": 18,
          "millisecond": 338,
          "minute": 5,
          "month": 9,
          "second": 12,
          "year": 2025
        },
        "creator": "FBX SDK/FBX Plugins version 2020.3.9",
        "sceneInfo": {
          "author": "",
          "comment": "",
          "keywords": "",
          "original": {
            "applicationName": "3ds Max",
            "applicationVendor": "Autodesk",
            "applicationVersion": "2026",
            "fileName": "E:\\pa_lyk\\PlayAble\\SSD_LoggingSurvival\\assets\\Res\\Fbx\\Ta\\chujifadianchang5.fbx"
          },
          "revision": "",
          "subject": "",
          "title": "",
          "url": "D:\\Cocos\\PlayAble\\SSD_0623_JHF_FaMuShengCun\\assets\\Res\\Fbx\\Ta\\chujifadianchang5.fbx"
        }
      }
    }
  },
  "materials": [
    {
      "extras": {
        "FBX-glTF-conv": {
          "raw": {
            "properties": {
              "3dsMax": {
                "value": {
                  "ClassIDa": {
                    "value": -804315648
                  },
                  "ClassIDb": {
                    "value": -1099438848
                  },
                  "SuperClassID": {
                    "value": 3072
                  },
                  "main": {
                    "value": {
                      "baseColor": {
                        "value": [
                          1.0,
                          1.0,
                          1.0,
                          1.0
                        ]
                      },
                      "bump_map_amt": {
                        "value": 1.0
                      },
                      "displacement_amt": {
                        "value": 1.0
                      },
                      "emit_color": {
                        "value": [
                          0.0,
                          0.0,
                          0.0,
                          1.0
                        ]
                      },
                      "metalness": {
                        "value": 0.0
                      },
                      "roughness": {
                        "value": 0.0
                      },
                      "useGlossiness": {
                        "value": 2
                      }
                    }
                  },
                  "settings": {
                    "value": {
                      "ao_affects_diffuse": {
                        "value": true
                      },
                      "ao_affects_reflection": {
                        "value": true
                      },
                      "normal_flip_green": {
                        "value": false
                      },
                      "normal_flip_red": {
                        "value": false
                      }
                    }
                  }
                }
              },
              "AmbientColor": {
                "value": [
                  1.0,
                  1.0,
                  1.0
                ]
              },
              "DiffuseColor": {
                "value": [
                  1.0,
                  1.0,
                  1.0
                ]
              },
              "EmissiveColor": {
                "value": [
                  0.0,
                  0.0,
                  0.0
                ]
              },
              "EmissiveFactor": {
                "value": 0.0
              },
              "MultiLayer": {
                "value": false
              },
              "ShadingModel": {
                "value": "unknown"
              },
              "ShininessExponent": {
                "value": 1024.0
              },
              "SpecularColor": {
                "value": [
                  1.0,
                  1.0,
                  1.0
                ]
              },
              "SpecularFactor": {
                "value": 2.0
              },
              "TransparencyFactor": {
                "value": 0.0
              }
            }
          }
        }
      },
      "name": "Material #30"
    },
    {
      "extras": {
        "FBX-glTF-conv": {
          "raw": {
            "properties": {
              "3dsMax": {
                "value": {
                  "ClassIDa": {
                    "value": -804315648
                  },
                  "ClassIDb": {
                    "value": -1099438848
                  },
                  "SuperClassID": {
                    "value": 3072
                  },
                  "main": {
                    "value": {
                      "baseColor": {
                        "value": [
                          1.0,
                          1.0,
                          1.0,
                          1.0
                        ]
                      },
                      "bump_map_amt": {
                        "value": 1.0
                      },
                      "displacement_amt": {
                        "value": 1.0
                      },
                      "emit_color": {
                        "value": [
                          0.0,
                          0.0,
                          0.0,
                          1.0
                        ]
                      },
                      "metalness": {
                        "value": 0.0
                      },
                      "roughness": {
                        "value": 0.0
                      },
                      "useGlossiness": {
                        "value": 2
                      }
                    }
                  },
                  "settings": {
                    "value": {
                      "ao_affects_diffuse": {
                        "value": true
                      },
                      "ao_affects_reflection": {
                        "value": true
                      },
                      "normal_flip_green": {
                        "value": false
                      },
                      "normal_flip_red": {
                        "value": false
                      }
                    }
                  }
                }
              },
              "AmbientColor": {
                "value": [
                  1.0,
                  1.0,
                  1.0
                ]
              },
              "DiffuseColor": {
                "value": [
                  1.0,
                  1.0,
                  1.0
                ]
              },
              "EmissiveColor": {
                "value": [
                  0.0,
                  0.0,
                  0.0
                ]
              },
              "EmissiveFactor": {
                "value": 0.0
              },
              "MultiLayer": {
                "value": false
              },
              "ShadingModel": {
                "value": "unknown"
              },
              "ShininessExponent": {
                "value": 1024.0
              },
              "SpecularColor": {
                "value": [
                  1.0,
                  1.0,
                  1.0
                ]
              },
              "SpecularFactor": {
                "value": 2.0
              },
              "TransparencyFactor": {
                "value": 0.0
              }
            }
          }
        }
      },
      "name": "Material #32"
    },
    {
      "extras": {
        "FBX-glTF-conv": {
          "raw": {
            "properties": {
              "3dsMax": {
                "value": {
                  "ClassIDa": {
                    "value": -804315648
                  },
                  "ClassIDb": {
                    "value": -1099438848
                  },
                  "SuperClassID": {
                    "value": 3072
                  },
                  "main": {
                    "value": {
                      "baseColor": {
                        "value": [
                          1.0,
                          1.0,
                          1.0,
                          1.0
                        ]
                      },
                      "bump_map_amt": {
                        "value": 1.0
                      },
                      "displacement_amt": {
                        "value": 1.0
                      },
                      "emit_color": {
                        "value": [
                          0.0,
                          0.0,
                          0.0,
                          1.0
                        ]
                      },
                      "metalness": {
                        "value": 0.0
                      },
                      "roughness": {
                        "value": 0.0
                      },
                      "useGlossiness": {
                        "value": 2
                      }
                    }
                  },
                  "settings": {
                    "value": {
                      "ao_affects_diffuse": {
                        "value": true
                      },
                      "ao_affects_reflection": {
                        "value": true
                      },
                      "normal_flip_green": {
                        "value": false
                      },
                      "normal_flip_red": {
                        "value": false
                      }
                    }
                  }
                }
              },
              "AmbientColor": {
                "value": [
                  1.0,
                  1.0,
                  1.0
                ]
              },
              "DiffuseColor": {
                "value": [
                  1.0,
                  1.0,
                  1.0
                ]
              },
              "EmissiveColor": {
                "value": [
                  0.0,
                  0.0,
                  0.0
                ]
              },
              "EmissiveFactor": {
                "value": 0.0
              },
              "MultiLayer": {
                "value": false
              },
              "ShadingModel": {
                "value": "unknown"
              },
              "ShininessExponent": {
                "value": 1024.0
              },
              "SpecularColor": {
                "value": [
                  1.0,
                  1.0,
                  1.0
                ]
              },
              "SpecularFactor": {
                "value": 2.0
              },
              "TransparencyFactor": {
                "value": 0.0
              }
            }
          }
        }
      },
      "name": "Material #33"
    },
    {
      "extras": {
        "FBX-glTF-conv": {
          "raw": {
            "properties": {
              "3dsMax": {
                "value": {
                  "ClassIDa": {
                    "value": -804315648
                  },
                  "ClassIDb": {
                    "value": -1099438848
                  },
                  "SuperClassID": {
                    "value": 3072
                  },
                  "main": {
                    "value": {
                      "baseColor": {
                        "value": [
                          1.0,
                          1.0,
                          1.0,
                          1.0
                        ]
                      },
                      "bump_map_amt": {
                        "value": 1.0
                      },
                      "displacement_amt": {
                        "value": 1.0
                      },
                      "emit_color": {
                        "value": [
                          0.0,
                          0.0,
                          0.0,
                          1.0
                        ]
                      },
                      "metalness": {
                        "value": 0.0
                      },
                      "roughness": {
                        "value": 0.0
                      },
                      "useGlossiness": {
                        "value": 2
                      }
                    }
                  },
                  "settings": {
                    "value": {
                      "ao_affects_diffuse": {
                        "value": true
                      },
                      "ao_affects_reflection": {
                        "value": true
                      },
                      "normal_flip_green": {
                        "value": false
                      },
                      "normal_flip_red": {
                        "value": false
                      }
                    }
                  }
                }
              },
              "AmbientColor": {
                "value": [
                  1.0,
                  1.0,
                  1.0
                ]
              },
              "DiffuseColor": {
                "value": [
                  1.0,
                  1.0,
                  1.0
                ]
              },
              "EmissiveColor": {
                "value": [
                  0.0,
                  0.0,
                  0.0
                ]
              },
              "EmissiveFactor": {
                "value": 0.0
              },
              "MultiLayer": {
                "value": false
              },
              "ShadingModel": {
                "value": "unknown"
              },
              "ShininessExponent": {
                "value": 1024.0
              },
              "SpecularColor": {
                "value": [
                  1.0,
                  1.0,
                  1.0
                ]
              },
              "SpecularFactor": {
                "value": 2.0
              },
              "TransparencyFactor": {
                "value": 0.0
              }
            }
          }
        }
      },
      "name": "Material #34"
    }
  ],
  "meshes": [
    {
      "name": "chujifadianchang",
      "primitives": [
        {
          "attributes": {
            "COLOR_0": 4,
            "NORMAL": 1,
            "POSITION": 0,
            "TEXCOORD_0": 2,
            "TEXCOORD_1": 3
          },
          "indices": 5,
          "material": 0
        },
        {
          "attributes": {
            "COLOR_0": 10,
            "NORMAL": 7,
            "POSITION": 6,
            "TEXCOORD_0": 8,
            "TEXCOORD_1": 9
          },
          "indices": 11,
          "material": 1
        },
        {
          "attributes": {
            "COLOR_0": 16,
            "NORMAL": 13,
            "POSITION": 12,
            "TEXCOORD_0": 14,
            "TEXCOORD_1": 15
          },
          "indices": 17,
          "material": 2
        },
        {
          "attributes": {
            "COLOR_0": 22,
            "NORMAL": 19,
            "POSITION": 18,
            "TEXCOORD_0": 20,
            "TEXCOORD_1": 21
          },
          "indices": 23,
          "material": 3
        }
      ]
    }
  ],
  "nodes": [
    {
      "mesh": 0,
      "name": "chujifadianchang",
      "rotation": [
        -0.7071067690849304,
        -0.0,
        0.0,
        0.7071067690849304
      ]
    }
  ],
  "scenes": [
    {
      "nodes": [
        0
      ]
    }
  ]
}